<?xml version="1.0" encoding="utf-8"?>
<!-- Svg Vector Icons : http://www.onlinewebfonts.com/icon -->
<!DOCTYPE svg PUBLIC "-//W3C//DTD SVG 1.1//EN" "http://www.w3.org/Graphics/SVG/1.1/DTD/svg11.dtd">
<svg version="1.1" xmlns="http://www.w3.org/2000/svg" xmlns:xlink="http://www.w3.org/1999/xlink" x="0px" y="0px" viewBox="0 0 1000 1000" enable-background="new 0 0 1000 1000" xml:space="preserve">
<metadata> Svg Vector Icons : http://www.onlinewebfonts.com/icon </metadata>
<g><g transform="translate(0.000000,511.000000) scale(0.100000,-0.100000)"><path d="M8215.9,4442.7l-1676.6-560.5L3396.9,747.2C467.8-2171.9,249.5-2397.7,180-2546.5c-99.2-208.3-106.6-463.8-19.8-689.5c52.1-136.4,109.1-203.4,677.1-773.8c731.7-739.1,771.3-763.9,1145.9-763.9c404.3,0,104.2-267.9,3655.8,3276.3l3152.3,3144.9l558,1674.1c305.1,920.1,555.6,1676.6,550.6,1676.6C9897.4,5000.8,9141,4752.7,8215.9,4442.7z M8627.6,3691.2c-111.6-372-439-1334.3-451.4-1334.3c-24.8,0-935,915.2-922.6,925.1c14.9,12.4,1341.8,458.8,1371.5,461.3C8637.5,3745.8,8637.5,3721,8627.6,3691.2z M7154.4,2245.3l558-560.5L5542.2-470.5L3372.1-2623.3l-558,555.6l-558,555.5L4413.7,645.5c1185.5,1188,2162.7,2157.8,2170.2,2157.8C6591.3,2803.3,6846.8,2552.8,7154.4,2245.3z M2313-2690.3l501-496l-401.8-401.8c-223.2-223.2-421.6-404.3-441.5-404.3c-39.7,0-1091.3,1039.2-1091.3,1078.9c0,12.4,181,205.8,401.8,426.6l401.8,401.8l64.5-54.6C1782.3-2169.5,2035.2-2417.5,2313-2690.3z"/></g></g>
</svg>