<?xml version="1.0" encoding="UTF-8" standalone="no"?>
<!-- Created with Inkscape (http://www.inkscape.org/) -->

<svg
   xmlns:dc="http://purl.org/dc/elements/1.1/"
   xmlns:cc="http://creativecommons.org/ns#"
   xmlns:rdf="http://www.w3.org/1999/02/22-rdf-syntax-ns#"
   xmlns:svg="http://www.w3.org/2000/svg"
   xmlns="http://www.w3.org/2000/svg"
   xmlns:xlink="http://www.w3.org/1999/xlink"
   version="1.1"
   width="690.89001"
   height="335.983"
   viewBox="0 0 690.89001 335.983"
   id="Layer_1"
   xml:space="preserve"
   style="overflow:visible"><metadata
   id="metadata861"><rdf:RDF><cc:Work
       rdf:about=""><dc:format>image/svg+xml</dc:format><dc:type
         rdf:resource="http://purl.org/dc/dcmitype/StillImage" /><dc:title></dc:title></cc:Work></rdf:RDF></metadata><defs
   id="defs859"><linearGradient
     x1="383.84079"
     y1="79.923798"
     x2="383.2681"
     y2="113.3342"
     id="linearGradient3507"
     xlink:href="#XMLID_8_"
     gradientUnits="userSpaceOnUse"
     gradientTransform="translate(-0.1001569,4.70959)" /><linearGradient
     x1="555.52539"
     y1="126.6426"
     x2="554.24689"
     y2="201.22079"
     id="linearGradient3509"
     xlink:href="#XMLID_9_"
     gradientUnits="userSpaceOnUse"
     gradientTransform="translate(-0.1001569,4.70959)" /></defs>


































<linearGradient
   x1="383.84079"
   y1="79.923798"
   x2="383.2681"
   y2="113.3342"
   id="XMLID_8_"
   gradientUnits="userSpaceOnUse">
	<stop
   id="stop72"
   style="stop-color:#015353;stop-opacity:1"
   offset="0" />
	<stop
   id="stop74"
   style="stop-color:#014f4e;stop-opacity:1"
   offset="0.11" />
	<stop
   id="stop76"
   style="stop-color:#01443f;stop-opacity:1"
   offset="0.24339999" />
	<stop
   id="stop78"
   style="stop-color:#003327;stop-opacity:1"
   offset="0.38839999" />
	<stop
   id="stop80"
   style="stop-color:#002210;stop-opacity:1"
   offset="0.49439999" />
	<stop
   id="stop82"
   style="stop-color:#003429;stop-opacity:1"
   offset="0.67460001" />
	<stop
   id="stop84"
   style="stop-color:#015353;stop-opacity:1"
   offset="1" />
</linearGradient>








<linearGradient
   x1="555.52539"
   y1="126.6426"
   x2="554.24689"
   y2="201.22079"
   id="XMLID_9_"
   gradientUnits="userSpaceOnUse">
	<stop
   id="stop103"
   style="stop-color:#006b33;stop-opacity:1"
   offset="0" />
	<stop
   id="stop105"
   style="stop-color:#00622f;stop-opacity:1"
   offset="0.0453" />
	<stop
   id="stop107"
   style="stop-color:#003f1e;stop-opacity:1"
   offset="0.23559999" />
	<stop
   id="stop109"
   style="stop-color:#002a14;stop-opacity:1"
   offset="0.39210001" />
	<stop
   id="stop111"
   style="stop-color:#002210;stop-opacity:1"
   offset="0.49439999" />
	<stop
   id="stop113"
   style="stop-color:#002813;stop-opacity:1"
   offset="0.59939998" />
	<stop
   id="stop115"
   style="stop-color:#00381a;stop-opacity:1"
   offset="0.73409998" />
	<stop
   id="stop117"
   style="stop-color:#005227;stop-opacity:1"
   offset="0.88440001" />
	<stop
   id="stop119"
   style="stop-color:#006b33;stop-opacity:1"
   offset="1" />
</linearGradient>









































<linearGradient
   x1="568.04791"
   y1="130.897"
   x2="567.62152"
   y2="202.4915"
   id="XMLID_10_"
   gradientUnits="userSpaceOnUse"
   gradientTransform="translate(-0.1001569,4.70959)">
	<stop
   id="stop204"
   style="stop-color:#006b33;stop-opacity:1"
   offset="0" />
	<stop
   id="stop206"
   style="stop-color:#007530;stop-opacity:1"
   offset="0.0165" />
	<stop
   id="stop208"
   style="stop-color:#009f21;stop-opacity:1"
   offset="0.0944" />
	<stop
   id="stop210"
   style="stop-color:#00c215;stop-opacity:1"
   offset="0.17389999" />
	<stop
   id="stop212"
   style="stop-color:#00dd0c;stop-opacity:1"
   offset="0.25409999" />
	<stop
   id="stop214"
   style="stop-color:#00f005;stop-opacity:1"
   offset="0.3353" />
	<stop
   id="stop216"
   style="stop-color:#00fb01;stop-opacity:1"
   offset="0.4183" />
	<stop
   id="stop218"
   style="stop-color:#00ff00;stop-opacity:1"
   offset="0.50559998" />
	<stop
   id="stop220"
   style="stop-color:#006b33;stop-opacity:1"
   offset="1" />
</linearGradient>








































<radialGradient
   cx="350.82321"
   cy="147.5786"
   r="6.6107001"
   id="XMLID_11_"
   gradientUnits="userSpaceOnUse">
	<stop
   id="stop323"
   style="stop-color:#ff7f00;stop-opacity:1"
   offset="0" />
	<stop
   id="stop325"
   style="stop-color:#8f0000;stop-opacity:1"
   offset="1" />
</radialGradient>

<radialGradient
   cx="368.41309"
   cy="152.17529"
   r="6.6101999"
   id="XMLID_12_"
   gradientUnits="userSpaceOnUse">
	<stop
   id="stop330"
   style="stop-color:#ff7f00;stop-opacity:1"
   offset="0" />
	<stop
   id="stop332"
   style="stop-color:#8f0000;stop-opacity:1"
   offset="1" />
</radialGradient>




<radialGradient
   cx="290.63919"
   cy="147.48779"
   r="6.6099"
   id="XMLID_13_"
   gradientUnits="userSpaceOnUse">
	<stop
   id="stop343"
   style="stop-color:#ff7f00;stop-opacity:1"
   offset="0" />
	<stop
   id="stop345"
   style="stop-color:#8f0000;stop-opacity:1"
   offset="1" />
</radialGradient>































<linearGradient
   x1="389.5791"
   y1="74.047401"
   x2="388.93979"
   y2="118.7944"
   id="XMLID_14_"
   gradientUnits="userSpaceOnUse"
   gradientTransform="translate(-0.1001569,4.70959)">
	<stop
   id="stop410"
   style="stop-color:#015353;stop-opacity:1"
   offset="0" />
	<stop
   id="stop412"
   style="stop-color:#045d5f;stop-opacity:1"
   offset="0.0672" />
	<stop
   id="stop414"
   style="stop-color:#0a7881;stop-opacity:1"
   offset="0.1901" />
	<stop
   id="stop416"
   style="stop-color:#15a3b6;stop-opacity:1"
   offset="0.3536" />
	<stop
   id="stop418"
   style="stop-color:#20d0ed;stop-opacity:1"
   offset="0.50559998" />
	<stop
   id="stop420"
   style="stop-color:#1ab9d1;stop-opacity:1"
   offset="0.58219999" />
	<stop
   id="stop422"
   style="stop-color:#0d828e;stop-opacity:1"
   offset="0.78170002" />
	<stop
   id="stop424"
   style="stop-color:#046063;stop-opacity:1"
   offset="0.92629999" />
	<stop
   id="stop426"
   style="stop-color:#015353;stop-opacity:1"
   offset="1" />
</linearGradient>



































<path
   d="m 202.11284,241.05259 c -4.53,2.872 1.092,3.354 3.056,3.458 1.92,0.102 5.895,0.952 9.942,-6.201 4.729,-8.354 17.686,-30.652 17.686,-30.652 0,0 9.801,-15.939 25.995,-14.713 0,0 -12.564,-9.11 -30.202,7.032 -10.776,9.864 -17.058,35.106 -26.477,41.076 z"
   id="path5"
   style="fill:#8f0000;stroke:#000000;stroke-width:0.62599999" /><path
   d="m 246.85984,193.09859 0,26.208 c 0,0 -0.32,1.303 1.357,1.303 1.677,0 2.837,-1.111 2.837,-1.111 l 0,-27.779 c 0.001,-0.001 -2.281,-1.694 -4.194,1.379 z"
   id="path7"
   style="fill:#ffbf00;stroke:#000000;stroke-width:0.62599999" /><path
   d="m 237.09284,218.67559 c -0.252,-0.077 -0.575,-2.554 -0.633,-2.809 -0.467,-2.071 -0.934,-4.142 -1.4,-6.213 -0.428,-1.899 -0.79,-3.781 -1.178,-5.665 -0.261,-1.277 -1.223,-3.242 0.268,-4.169 0.757,-0.471 2.08,-0.52 2.771,0.604 0,0 3.793,16.355 4.229,18.616 l -1.481,0.418 c -10e-4,0.002 -2.574,-0.781 -2.576,-0.782 z"
   id="path9"
   style="fill:#ffbf00;stroke:#000000;stroke-width:0.62599999" /><path
   d="m 209.38184,214.01059 c 0,0 -0.992,22.292 -0.994,22.356 -0.051,1.132 0.549,3.308 2.035,3.327 2.748,0.035 2.219,-5.278 2.293,-6.928 0.137,-2.936 0.271,-5.871 0.406,-8.806 0.038,-0.83 -0.082,-10.987 0.514,-11.156 l -4.254,1.207 z"
   id="path11"
   style="fill:#ffbf00;stroke:#000000;stroke-width:0.62599999" /><path
   d="m 172.03384,229.37959 c 0.736,0.831 2.307,0.914 5.129,-0.236 4.166,-1.697 6.588,-9.005 8.684,-12.624 1.869,-3.227 3.74,-6.453 5.613,-9.678 0,0 9.801,-15.939 25.996,-14.713 0,0 -12.564,-9.11 -30.203,7.033 -4.538,4.153 -7.557,9.839 -10.358,15.229 -1.126,2.169 -7.201,12.35 -4.861,14.989 z"
   id="path13"
   style="fill:#8f0000;stroke:#000000;stroke-width:0.62599999" /><path
   d="m 246.85984,218.29359 0,18.389 0,1.511 c 0,0 -0.8,0.504 1.357,1.071 2.158,0.567 2.797,0.189 2.797,0.189 l 0.04,-22.293 -4.194,1.133 z"
   id="path15"
   style="fill:#7dff00;stroke:#000000;stroke-width:0.5675" /><path
   d="m 238.86884,216.54759 2.237,2.146 3.196,16.705 c 0,0 -2.077,3.985 -3.676,2.452 -1.599,-1.532 -0.879,-2.222 -0.879,-2.222 l -2.655,-16.953 1.777,-2.128 z"
   id="path17"
   style="fill:#7dff00;stroke:#000000;stroke-width:0.62599999" /><path
   d="m 210.30184,192.62459 -0.963,21.613 c 0,0 -0.368,1.061 1.309,1.13 1.677,0.068 2.875,-0.8 2.875,-0.8 l 1.02,-22.908 c -0.001,-0.001 -2.218,-1.491 -4.241,0.965 z"
   id="path19"
   style="fill:#7dff00;stroke:#000000;stroke-width:0.62599999" /><path
   d="m 201.54784,217.31759 0.086,24.196 -1.687,1.618 -1.75,-1.679 -0.56,-23.679 c 0,0 -0.337,-1.686 1.758,-1.686 2.096,0 2.153,1.23 2.153,1.23 z"
   id="path21"
   style="fill:#ffbf00;stroke:#000000;stroke-width:0.62599999" /><path
   d="m 196.99884,196.62359 c 0,0 -0.64,-2.452 1.438,-2.912 2.078,-0.46 2.078,1.379 2.078,1.379 l 1.119,24.062 -1.998,1.916 -1.998,-1.916 -0.639,-22.529 z"
   id="path23"
   style="fill:#7dff00;stroke:#000000;stroke-width:0.62599999" /><path
   d="m 190.75284,216.94759 2.875,14.481 -3.021,-0.935 -1.918,-3.065 -0.715,-9.824 c 0,0.001 2.086,-1.811 2.779,-0.657 z"
   id="path25"
   style="fill:#7dff00;stroke:#000000;stroke-width:0.62599999" /><path
   d="m 225.66084,204.95759 c 1.235,-0.637 2.639,0.244 2.541,2.125 -0.201,3.87 -3.898,6.803 -4.813,10.515 -0.236,0.961 -2.086,-1.705 -2.155,-1.969 -0.388,-1.494 0.117,-2.345 0.777,-3.69 0.979,-1.992 1.447,-4.196 2.685,-6.073 0.283,-0.431 0.618,-0.73 0.965,-0.908 z"
   id="path27"
   style="fill:#7dff00;stroke:#000000;stroke-width:0.62599999" /><path
   d="m 223.08284,217.50859 c -0.812,1.757 -2.195,10.86 -5.578,8.656 -2.34,-1.523 1.111,-6.434 1.877,-8.126 0.434,-0.962 0.756,-2.089 1.323,-2.969 0.257,1.305 2.073,1.647 3.143,1.024 -0.289,0.457 -0.54,0.93 -0.765,1.415 z"
   id="path29"
   style="fill:#ffbf00;stroke:#000000;stroke-width:0.62599999" /><path
   d="m 174.19584,200.82359 c -1.053,1.051 -1.46,2.981 -0.587,5.824 3.364,10.949 10.252,22.504 16.572,32.072 0.003,0.004 4.05,6.131 8.098,7.766 0,0 6.392,-1.227 10.014,0 0,0 3.246,-1.947 7.363,-9.133 0,0 -3.74,5.66 -7.363,5.66 -3.622,0 -9.482,-5.824 -9.482,-7.663 -3.746,-7.303 -7.492,-14.606 -11.239,-21.91 -1.625,-3.168 -3.087,-6.514 -4.911,-9.574 -2.33,-3.91 -6.51,-4.993 -8.465,-3.042 z"
   id="path31"
   style="fill:#ff0000;stroke:#000000;stroke-width:0.62599999" /><path
   d="m 85.823843,149.71559 c -4.53,2.995 1.092,3.498 3.056,3.606 1.92,0.106 5.895,0.992 9.942,-6.465 4.728997,-8.711 17.685997,-31.962 17.685997,-31.962 0,0 9.801,-16.620997 25.995,-15.341997 0,0 -12.564,-9.5 -30.202,7.332997 -10.776,10.284 -17.057997,36.604 -26.476997,42.83 z"
   id="path33"
   style="fill:#8f0000;stroke:#000000;stroke-width:0.63919997" /><path
   d="m 130.57084,99.711593 0,27.327997 c 0,0 -0.32,1.358 1.357,1.358 1.677,0 2.837,-1.159 2.837,-1.159 l 0,-28.964997 c 0.001,0 -2.282,-1.765 -4.194,1.438 z"
   id="path35"
   style="fill:#ffbf00;stroke:#000000;stroke-width:0.63919997" /><path
   d="m 120.80384,126.38259 c -0.252,-0.081 -0.575,-2.663 -0.633,-2.929 -0.467,-2.16 -0.934,-4.319 -1.4,-6.479 -0.428,-1.98 -0.79,-3.942 -1.178,-5.907 -0.261,-1.331 -1.223,-3.38 0.268,-4.347 0.757,-0.491 2.08,-0.542 2.771,0.63 0,0 3.793,17.054 4.229,19.412 l -1.481,0.436 c -0.001,0.001 -2.574,-0.816 -2.576,-0.816 z"
   id="path37"
   style="fill:#ffbf00;stroke:#000000;stroke-width:0.63919997" /><path
   d="m 93.092843,121.51759 c 0,0 -0.992,23.245 -0.994,23.311 -0.051,1.181 0.549,3.45 2.035,3.47 2.748,0.037 2.219,-5.504 2.293,-7.224 0.137,-3.061 0.271,-6.122 0.406,-9.183 0.038,-0.866 -0.082,-11.457 0.514,-11.633 l -4.254,1.259 z"
   id="path39"
   style="fill:#ffbf00;stroke:#000000;stroke-width:0.63919997" /><path
   d="m 68.044843,109.85759 c 2.086,-1.71 9.19,-3.74 10.231,0.232 5.231,-7.04 13.947,-12.093997 22.890997,-11.387997 -0.731,-0.058 -2.019997,-1.142 -2.739997,-1.428 -2.478,-0.982 -5.181,-1.354 -7.835,-1.213 -4.236,0.226 -8.29,1.787 -11.897,3.957997 -3.57,2.149 -9.235,5.64 -10.65,9.839 z"
   id="path41"
   style="fill:#8f0000;stroke:#000000;stroke-width:0.63919997" /><path
   d="m 130.57084,126.24059 0,23.333 0,1.917 c 0,0 -0.8,0.64 1.357,1.358 2.158,0.719 2.797,0.24 2.797,0.24 l 0.04,-28.286 -4.194,1.438 z"
   id="path43"
   style="fill:#7dff00;stroke:#000000;stroke-width:0.63919997" /><path
   d="m 122.57984,124.16359 2.237,2.237 3.196,17.419 c 0,0 -2.077,4.155 -3.676,2.557 -1.599,-1.598 -0.879,-2.317 -0.879,-2.317 l -2.655,-17.677 1.777,-2.219 z"
   id="path45"
   style="fill:#7dff00;stroke:#000000;stroke-width:0.63919997" /><path
   d="m 94.012843,99.217593 -0.963,22.535997 c 0,0 -0.368,1.106 1.309,1.178 1.677,0.071 2.875,-0.834 2.875,-0.834 l 1.02,-23.886997 c -0.001,0 -2.218,-1.553 -4.241,1.007 z"
   id="path47"
   style="fill:#7dff00;stroke:#000000;stroke-width:0.63919997" /><path
   d="m 85.258843,124.96559 0.086,25.229 -1.687,1.687 -1.75,-1.75 -0.56,-24.69 c 0,0 -0.337,-1.758 1.758,-1.758 2.096,0 2.153,1.282 2.153,1.282 z"
   id="path49"
   style="fill:#ffbf00;stroke:#000000;stroke-width:0.63919997" /><path
   d="m 80.709843,103.38759 c 0,0 -0.64,-2.557 1.438,-3.037 2.078,-0.478997 2.078,1.438 2.078,1.438 l 1.119,25.09 -1.998,1.998 -1.998,-1.998 -0.639,-23.491 z"
   id="path51"
   style="fill:#7dff00;stroke:#000000;stroke-width:0.63919997" /><path
   d="m 109.37184,112.07759 c 1.235,-0.664 2.639,0.255 2.541,2.216 -0.201,4.035 -3.898,7.093 -4.813,10.964 -0.236,1.002 -2.086,-1.778 -2.155,-2.053 -0.388,-1.558 0.117,-2.445 0.777,-3.848 0.979,-2.077 1.447,-4.375 2.685,-6.332 0.283,-0.449 0.618,-0.761 0.965,-0.947 z"
   id="path53"
   style="fill:#7dff00;stroke:#000000;stroke-width:0.63919997" /><path
   d="m 106.79384,125.16559 c -0.812,1.832 -2.195,11.324 -5.578,9.025 -2.339997,-1.588 1.111,-6.709 1.877,-8.474 0.434,-1.003 0.756,-2.179 1.323,-3.096 0.257,1.361 2.073,1.717 3.143,1.068 -0.289,0.478 -0.54,0.971 -0.765,1.477 z"
   id="path55"
   style="fill:#ffbf00;stroke:#000000;stroke-width:0.63919997" /><rect
   width="18.01"
   height="71.695"
   x="199.27786"
   y="87.924591"
   id="rect57"
   style="fill:#c9930a;stroke:#000000;stroke-width:0.52139997" /><ellipse
   cx="260.36099"
   cy="149.629"
   rx="9.8559999"
   ry="15.342"
   transform="translate(-0.1001569,4.70959)"
   id="ellipse59"
   style="fill:#0060b6;stroke:#000000;stroke-width:0.66860002" /><path
   d="m 230.14384,100.34459 0,28.782 c 0,0 -0.32,1.431 1.358,1.431 1.678,0 2.836,-1.221 2.836,-1.221 l 0,-30.506997 c 0,0 -2.281,-1.859 -4.194,1.514997 z"
   id="path61"
   style="fill:#ffbf00;stroke:#000000;stroke-width:0.65600002" /><path
   d="m 217.51884,100.24259 0,29.477 c 0,0 -0.32,1.465 1.358,1.465 1.678,0 2.836,-1.25 2.836,-1.25 l 0,-31.243997 c 0,0 -2.281,-1.904 -4.194,1.551997 z"
   id="path63"
   style="fill:#ffbf00;stroke:#000000;stroke-width:0.66390002" /><path
   d="m 202.66984,99.376593 0,25.397997 c 0,0 -0.32,1.263 1.358,1.263 1.678,0 2.836,-1.076 2.836,-1.076 l 0,-26.922997 c 0,0 -2.281,-1.641 -4.194,1.338 z"
   id="path65"
   style="fill:#ffbf00;stroke:#000000;stroke-width:0.61629999" /><path
   d="m 253.16984,99.743593 0,20.434997 c 0,0 -0.32,1.016 1.358,1.016 1.678,0 2.836,-0.866 2.836,-0.866 l 0,-21.659997 c 0,-0.001 -2.281,-1.321 -4.194,1.075 z"
   id="path67"
   style="fill:#ffbf00;stroke:#000000;stroke-width:0.5528" /><path
   d="m 241.02384,99.522593 0,21.621997 c 0,0 -0.32,1.074 1.358,1.074 1.678,0 2.836,-0.916 2.836,-0.916 l 0,-22.917997 c 0.001,0 -2.281,-1.397 -4.194,1.138 z"
   id="path69"
   style="fill:#ffbf00;stroke:#000000;stroke-width:0.5686" /><path
   d="m 387.02084,101.30559 c 0.107,1.728 0.402,3.457 0.905,5.177 0.929,3.176 4.056,5.71 4.802,8.817 1.444,6.023 -7.646,12.857 -12.439,7.857 -1.938,-2.021 -3.089,-4.57 -4.083,-6.905 -2.089,-4.906 -2.427,-10.129 -2.427,-15.243 0,-13.263997 5.234,-24.016997 11.689,-24.017997 3.535,0 4.191,1.423 5.008,4.361 1.006,3.618 -0.998,6.411 -2.067,9.741 -1.079,3.36 -1.601,6.786 -1.388,10.212997 z"
   id="path86"
   style="fill:url(#linearGradient3507)" /><path
   d="m 191.52284,101.52159 0,29.477 c 0,0 -0.319,1.466 1.358,1.466 1.678,0 2.836,-1.25 2.836,-1.25 l 0,-31.244997 c 0,0 -2.281,-1.904 -4.194,1.551997 z"
   id="path88"
   style="fill:#ffbf00;stroke:#000000;stroke-width:0.66390002" /><path
   d="m 179.21684,101.01859 0,24.138 c 0,0 -0.32,1.2 1.358,1.2 1.678,0 2.836,-1.023 2.836,-1.023 l 0,-25.584997 c 0.001,0 -2.281,-1.56 -4.194,1.269997 z"
   id="path90"
   style="fill:#ffbf00;stroke:#000000;stroke-width:0.60079998" /><rect
   width="23.865"
   height="64.349998"
   x="347.71088"
   y="182.50459"
   id="rect92"
   style="fill:#c9930a;stroke:#000000;stroke-width:0.5686" /><path
   d="m 264.57884,149.44459 -0.616,8.086 26.918,-0.163 c -1.083,-1.638 -1.319,-6.414 -0.107,-7.923 l -26.195,0 z"
   id="path94"
   style="fill:#bf0000;stroke:#000000;stroke-width:0.39179999" /><path
   d="m 350.99884,136.17459 0,14.154 0,1.164 c 0,0 -0.8,0.388 1.358,0.824 2.157,0.437 2.797,0.145 2.797,0.145 l 0.039,-17.158 -4.194,0.871 z"
   id="path96"
   style="fill:#7dff00;stroke:#000000;stroke-width:0.68540001" /><path
   d="m 305.10784,149.65759 -0.933,8.086 46.368,-0.163 c -1.641,-1.638 -1.999,-6.414 -0.161,-7.924 l -45.274,0 0,0.001 z"
   id="path98"
   style="fill:#bf0000;stroke:#000000;stroke-width:0.48230001" /><path
   d="m 442.55884,242.45959 c 0.005,-0.003 7.604,-4.7 7.604,-4.7 l -6.166,-0.893 -35.957,0 -95.887,0 c -9.588,0 -19.176,0 -28.764,0 -6.687,0 -13.374,0 -20.061,0 -2.177,0 -4.63,-0.32 -6.785,0 -2.028,0.301 -3.314,1.137 -5.504,0.974 -2.527,-0.189 -4.851,-1.749 -7.458,-1.181 4.806,8.958 23.888,5.8 32.442,5.8 13.917,0 27.833,0 41.749,0 30.565,0 61.129,0 91.695,0 8.017,0 16.033,0 24.051,0 1.858,0 7.389,1.021 9.041,0 z"
   id="path100"
   style="fill:#bf0000;stroke:#000000;stroke-width:0.63919997" /><path
   d="m 556.20684,169.13459 c 0.043,1.42 0.095,2.838 0.151,4.254 0.341,8.482 -1.199,21.365 5.095,28.064 3.35,3.565 7.521,8.427 5.949,13.851 -2.129,7.35 -11.485,7.649 -15.387,2.224 -3.248,-4.518 -5.178,-10.218 -6.846,-15.438 -3.504,-10.968 -4.07,-22.645 -4.07,-34.078 0,-29.654 8.777,-53.693 19.603,-53.696 9.308,-0.002 8.925,7.931 5.658,14.425 -0.671,1.333 -1.532,3.39 -2.679,4.381 -1.5,1.299 -2.967,0.433 -4.096,1.351 -1.836,1.496 -1.771,5.635 -2.122,7.785 -1.45,8.873 -1.53,17.902 -1.256,26.877 z"
   id="path121"
   style="fill:url(#linearGradient3509)" /><path
   d="m 464.63784,186.97459 15.056,16.954 1.237,1.394 c 0,0 -0.185,0.995 1.893,0.085 2.077,-0.91 2.246,-1.683 2.246,-1.683 l -18.223,-20.58 -2.209,3.83 z"
   id="path123"
   style="fill:#7dff00;stroke:#000000;stroke-width:0.63020003" /><path
   d="m 461.68084,202.47859 7.752,8.728 0.637,0.718 c 0,0 -0.385,0.77 1.467,-0.394 1.852,-1.164 2.171,-1.768 2.171,-1.768 l -9.367,-10.608 -2.66,3.324 z"
   id="path125"
   style="fill:#7dff00;stroke:#000000;stroke-width:0.45210001" /><path
   d="m 452.22784,210.84559 8.025,9.037 0.659,0.743 c 0,0 -0.378,0.777 1.483,-0.376 1.86,-1.154 2.173,-1.765 2.173,-1.765 l -9.698,-10.982 -2.642,3.343 z"
   id="path127"
   style="fill:#7dff00;stroke:#000000;stroke-width:0.4601" /><path
   d="m 435.59284,210.64459 14.36,16.171 1.181,1.329 c 0,0 -0.205,0.975 1.852,0.04 2.056,-0.935 2.238,-1.691 2.238,-1.691 l -17.38,-19.631 -2.251,3.782 z"
   id="path129"
   style="fill:#7dff00;stroke:#000000;stroke-width:0.61540002" /><path
   d="m 435.98184,226.35759 4.615,10.438 0.38,0.858 c 0,0 -0.604,0.61 1.511,0.059 2.115,-0.55 2.605,-1.023 2.605,-1.023 l -5.559,-12.671 -3.552,2.339 z"
   id="path131"
   style="fill:#7dff00;stroke:#000000;stroke-width:0.44710001" /><path
   d="m 605.11184,193.45959 c -4.53,2.995 1.092,3.498 3.056,3.606 1.92,0.106 5.895,0.992 9.942,-6.465 4.729,-8.711 17.686,-31.962 17.686,-31.962 0,0 9.801,-16.621 25.995,-15.342 0,0 -12.564,-9.5 -30.202,7.333 -10.777,10.284 -17.058,36.604 -26.477,42.83 z"
   id="path133"
   style="fill:#8f0000;stroke:#000000;stroke-width:0.63919997" /><path
   d="m 649.85884,143.45659 0,27.328 c 0,0 -0.32,1.358 1.357,1.358 1.677,0 2.837,-1.159 2.837,-1.159 l 0,-28.966 c 0,0 -2.282,-1.765 -4.194,1.439 z"
   id="path135"
   style="fill:#ffbf00;stroke:#000000;stroke-width:0.63919997" /><path
   d="m 640.09084,170.12659 c -0.252,-0.081 -0.575,-2.663 -0.633,-2.929 -0.467,-2.16 -0.934,-4.319 -1.4,-6.479 -0.428,-1.98 -0.79,-3.942 -1.178,-5.907 -0.261,-1.331 -1.223,-3.38 0.268,-4.347 0.757,-0.491 2.08,-0.542 2.771,0.63 0,0 3.793,17.054 4.229,19.412 l -1.481,0.436 c 0,0.001 -2.574,-0.816 -2.576,-0.816 z"
   id="path137"
   style="fill:#ffbf00;stroke:#000000;stroke-width:0.63919997" /><path
   d="m 612.37984,165.26159 c 0,0 -0.992,23.245 -0.994,23.311 -0.051,1.181 0.549,3.45 2.035,3.47 2.748,0.037 2.219,-5.504 2.293,-7.224 0.137,-3.061 0.271,-6.122 0.406,-9.183 0.038,-0.866 -0.082,-11.457 0.514,-11.633 l -4.254,1.259 z"
   id="path139"
   style="fill:#ffbf00;stroke:#000000;stroke-width:0.73280001" /><path
   d="m 570.72384,145.60259 c 3.473,-1.099 -1.094,-3.672 -2.319,-4.05 -1.993,-0.615 -4.247,-0.977 -6.339,-0.959 -2.488,0.02 -1.801,-1.483 -4.231,-0.658 -3.364,1.141 -8.032,0.468 -11.505,0.473 -7.708,0.013 -15.417,-0.14 -23.123,-0.306 -15.906,-0.344 -31.635,-0.412 -37.252,-4.501 -4.115,-2.996 -8.155,-6.848 -11.033,-11.076 -3.549,-5.212 -4.822,-13.161 -9.497,-17.492 -1.591,-1.474 -3.939,-2.619 -5.761,-3.946 -1.713,-1.249 -5.357,-1.812 -6.551,-2.851 4.523,3.939 6.475,9.965 8.736,15.309 2.5,5.904 6.363,10.753 9.813,16.099 3.576,5.542 10.986,11.284 17.344,13.003 7.242,1.958 31.705,1.593 35.906,1.619 5.793,0.035 27.084,0.472 32.002,0.313 3.988,-0.129 7.91,0.176 11.886,0.382 0.862,0.044 1.41,-1.196 1.924,-1.359 z"
   id="path141"
   style="fill:#bf0000;stroke:#000000;stroke-width:0.63919997" /><path
   d="m 563.77484,192.60959 c -4.53,2.995 1.092,3.497 3.057,3.606 1.92,0.106 5.893,0.992 9.941,-6.465 4.729,-8.712 17.686,-31.962 17.686,-31.962 0,0 9.801,-16.62 25.996,-15.342 0,0 -12.564,-9.499 -30.203,7.333 -10.777,10.284 -17.057,36.604 -26.477,42.83 z"
   id="path143"
   style="fill:#8f0000;stroke:#000000;stroke-width:0.63919997" /><path
   d="m 649.85884,169.98459 0,23.333 0,1.917 c 0,0 -0.8,0.64 1.357,1.358 2.158,0.719 2.797,0.24 2.797,0.24 l 0.04,-28.286 -4.194,1.438 z"
   id="path145"
   style="fill:#7dff00;stroke:#000000;stroke-width:0.63919997" /><path
   d="m 641.86784,167.90759 2.237,2.237 3.196,17.419 c 0,0 -2.077,4.155 -3.676,2.557 -1.599,-1.598 -0.879,-2.317 -0.879,-2.317 l -2.655,-17.677 1.777,-2.219 z"
   id="path147"
   style="fill:#7dff00;stroke:#000000;stroke-width:0.63919997" /><path
   d="m 630.89384,151.39359 c 0,0 8.098,-9.588 18.539,-10.867 l 10.227,0 c 0,0 8.83,1.066 10.867,5.114 0,0 -5.326,3.623 -5.326,5.327 0,0 -9.803,-10.441 -18.752,-8.097 -5.949,1.558 -15.555,8.523 -15.555,8.523 z"
   id="path149"
   style="fill:#ff0000;stroke:#000000;stroke-width:0.63919997" /><path
   d="m 613.29984,142.96159 -0.963,22.536 c 0,0 -0.368,1.106 1.309,1.178 1.677,0.071 2.875,-0.834 2.875,-0.834 l 1.02,-23.887 c 0,0 -2.217,-1.553 -4.241,1.007 z"
   id="path151"
   style="fill:#7dff00;stroke:#000000;stroke-width:0.63919997" /><path
   d="m 604.54584,168.70959 0.086,25.229 -1.687,1.687 -1.75,-1.75 -0.56,-24.69 c 0,0 -0.337,-1.758 1.758,-1.758 2.097,0 2.153,1.282 2.153,1.282 z"
   id="path153"
   style="fill:#ffbf00;stroke:#000000;stroke-width:0.73280001" /><path
   d="m 599.99784,147.13159 c 0,0 -0.64,-2.557 1.438,-3.037 2.078,-0.479 2.078,1.438 2.078,1.438 l 1.119,25.09 -1.998,1.998 -1.998,-1.998 -0.639,-23.491 z"
   id="path155"
   style="fill:#7dff00;stroke:#000000;stroke-width:0.63919997" /><path
   d="m 588.80984,157.67959 c 0,0 -0.799,-1.918 1.918,-1.918 2.717,0 1.678,1.039 1.678,1.039 l 1.762,15.179 -1.122,1.122 -1.598,-1.598 -2.638,-13.824 z"
   id="path157"
   style="fill:#7dff00;stroke:#000000;stroke-width:0.63919997" /><path
   d="m 593.75184,168.32459 2.875,15.1 -3.021,-0.974 -1.918,-3.196 -0.715,-10.244 c -10e-4,-0.001 2.085,-1.889 2.779,-0.686 z"
   id="path159"
   style="fill:#ffbf00;stroke:#000000;stroke-width:0.73280001" /><path
   d="m 628.65984,155.82159 c 1.235,-0.664 2.639,0.255 2.541,2.216 -0.201,4.035 -3.898,7.093 -4.813,10.964 -0.236,1.002 -2.086,-1.778 -2.155,-2.053 -0.388,-1.558 0.117,-2.445 0.777,-3.848 0.979,-2.077 1.447,-4.375 2.685,-6.332 0.282,-0.449 0.617,-0.761 0.965,-0.947 z"
   id="path161"
   style="fill:#7dff00;stroke:#000000;stroke-width:0.63919997" /><path
   d="m 626.08184,168.90959 c -0.812,1.832 -2.195,11.324 -5.578,9.025 -2.34,-1.588 1.111,-6.709 1.877,-8.474 0.434,-1.003 0.756,-2.179 1.323,-3.096 0.257,1.361 2.073,1.717 3.143,1.068 -0.29,0.478 -0.541,0.971 -0.765,1.477 z"
   id="path163"
   style="fill:#ffbf00;stroke:#000000;stroke-width:0.73280001" /><path
   d="m 605.00484,142.33759 c 0,0 3.941,-0.533 12.039,7.564 8.948,8.948 20.469,34.726 21.629,38.248 5.857,17.792 8.202,8.417 15.34,10.867 0,0 3.247,1.598 7.363,-9.524 0,0 -3.74,9.524 -7.363,5.901 -1.811,-1.811 -3.713,-5.862 -6.285,-11.187 -2.572,-5.324 -14.383,-30.363 -19.496,-35.478 -5.114,-5.114 -7.459,-7.244 -14.703,-9.162 0,0 -4.336,0.287 -8.311,0 0,0 -10.279,1.474 -14.967,10.211 10e-4,0.001 7.723,-8.718 14.754,-7.44 z"
   id="path165"
   style="fill:#ff0000;stroke:#000000;stroke-width:0.63919997" /><path
   d="m 570.82984,166.87059 c 0,0 -0.991,20.667 -0.994,20.726 -0.051,1.051 0.55,3.067 2.035,3.085 2.748,0.032 2.219,-4.894 2.294,-6.423 0.136,-2.721 0.271,-5.442 0.405,-8.164 0.039,-0.77 -0.082,-10.186 0.514,-10.343 l -4.254,1.119 z"
   id="path167"
   style="fill:#7dff00;stroke:#000000;stroke-width:0.60280001" /><path
   d="m 571.74984,147.04359 -0.963,20.037 c 0,0 -0.367,0.984 1.309,1.048 1.678,0.063 2.875,-0.742 2.875,-0.742 l 1.02,-21.238 c -0.001,0 -2.218,-1.381 -4.241,0.895 z"
   id="path169"
   style="fill:#ffbf00;stroke:#000000;stroke-width:0.54759997" /><path
   d="m 561.00384,144.16859 0,26.556 c 0,0 -0.319,1.32 1.359,1.32 1.678,0 2.836,-1.126 2.836,-1.126 l 0,-28.148 c 0,0 -2.281,-1.715 -4.195,1.398 z"
   id="path171"
   style="fill:#ffbf00;stroke:#000000;stroke-width:0.63020003" /><path
   d="m 561.00384,169.94759 0,22.674 0,1.864 c 0,0 -0.799,0.621 1.359,1.32 2.156,0.699 2.796,0.233 2.796,0.233 l 0.04,-27.488 -4.195,1.397 z"
   id="path173"
   style="fill:#7dff00;stroke:#000000;stroke-width:0.63020003" /><path
   d="m 548.49884,145.40059 0,34.658 c 0,0 -0.319,1.723 1.358,1.723 1.677,0 2.836,-1.469 2.836,-1.469 l 0,-36.735 c 0,-10e-4 -2.281,-2.24 -4.194,1.823 z"
   id="path175"
   style="fill:#ffbf00;stroke:#000000;stroke-width:0.71990001" /><path
   d="m 548.49884,179.57659 0,11.673 0,0.96 c 0,0 -0.799,0.319 1.358,0.679 2.157,0.36 2.797,0.12 2.797,0.12 l 0.039,-14.152 -4.194,0.72 z"
   id="path177"
   style="fill:#7dff00;stroke:#000000;stroke-width:0.45210001" /><path
   d="m 535.87384,145.27759 0,35.495 c 0,0 -0.319,1.765 1.358,1.765 1.677,0 2.836,-1.505 2.836,-1.505 l 0,-37.623 c 0,0 -2.281,-2.293 -4.194,1.868 z"
   id="path179"
   style="fill:#ffbf00;stroke:#000000;stroke-width:0.72850001" /><path
   d="m 535.87384,179.55659 0,12.085 0,0.994 c 0,0 -0.799,0.331 1.358,0.704 2.157,0.372 2.797,0.124 2.797,0.124 l 0.039,-14.651 -4.194,0.744 z"
   id="path181"
   style="fill:#7dff00;stroke:#000000;stroke-width:0.4601" /><path
   d="m 523.56784,144.40959 0,25.33 c 0,0 -0.319,1.259 1.359,1.259 1.678,0 2.836,-1.074 2.836,-1.074 l 0,-26.849 c 0,0.001 -2.281,-1.636 -4.195,1.334 z"
   id="path183"
   style="fill:#ffbf00;stroke:#000000;stroke-width:0.61540002" /><path
   d="m 523.56784,168.35959 0,21.627 0,1.778 c 0,0 -0.799,0.593 1.359,1.259 2.156,0.667 2.796,0.222 2.796,0.222 l 0.04,-26.219 -4.195,1.333 z"
   id="path185"
   style="fill:#7dff00;stroke:#000000;stroke-width:0.61540002" /><path
   d="m 511.42184,144.84959 0,35.909 c 0,0 -0.319,1.785 1.358,1.785 1.677,0 2.837,-1.522 2.837,-1.522 l 0,-38.062 c 10e-4,0 -2.281,-2.32 -4.195,1.89 z"
   id="path187"
   style="fill:#ffbf00;stroke:#000000;stroke-width:0.73280001" /><path
   d="m 511.42184,180.68759 0,11.413 0,0.938 c 0,0 -0.799,0.313 1.358,0.665 2.158,0.352 2.797,0.117 2.797,0.117 l 0.04,-13.836 -4.195,0.703 z"
   id="path189"
   style="fill:#7dff00;stroke:#000000;stroke-width:0.44710001" /><path
   d="m 496.83284,143.83259 -5.21,26.04 c 0,0 -0.572,1.232 1.072,1.561 1.646,0.33 3.003,-0.547 3.003,-0.547 l 5.522,-27.601 c 0,-0.001 -1.901,-2.131 -4.387,0.547 z"
   id="path191"
   style="fill:#ffbf00;stroke:#000000;stroke-width:0.63020003" /><path
   d="m 493.13184,174.56459 6.195,19.528 0.51,1.605 c 0,0 -0.592,0.777 1.656,0.726 2.248,-0.051 2.729,-0.646 2.729,-0.646 l -7.474,-23.687 -3.616,2.474 z"
   id="path193"
   style="fill:#7dff00;stroke:#000000;stroke-width:0.59899998" /><path
   d="m 485.00484,140.79459 -9.565,24.773 c 0,0 -0.773,1.116 0.792,1.721 1.565,0.604 3.052,-0.029 3.052,-0.029 l 10.139,-26.259 c -0.001,0.001 -1.511,-2.421 -4.418,-0.206 z"
   id="path195"
   style="fill:#ffbf00;stroke:#000000;stroke-width:0.63020003" /><path
   d="m 493.69684,197.73259 -11.471,-19.558 -0.943,-1.607 c 0,0 0.375,-0.94 -1.84,-0.452 -2.215,0.488 -2.529,1.214 -2.529,1.214 l 13.871,23.73 2.912,-3.327 z"
   id="path197"
   style="fill:#7dff00;stroke:#000000;stroke-width:0.63020003" /><path
   d="m 571.23584,197.45259 c 0.539,-0.28 1.08,-0.642 1.627,-1.107 2.164,-1.838 8.021,-11.072 7.928,-13.399 -5.511,8.72 -9.889,12.417 -12.221,12.717 -2.257,0.291 -4.294,-1.705 -6.346,-2.451 -1.324,-0.481 -3.195,-0.246 -4.572,-0.294 -11.412,-0.396 -22.834,-0.403 -34.252,-0.365 -5.41,0.018 -10.857,-0.136 -16.241,-0.091 -5.095,0.042 -10.259,2.061 -14.853,4.083 -9.841,4.331 -18.604,10.965 -26.58,18.095 -4.611,4.122 -8.634,8.94 -13.291,12.98 -2.042,1.771 -4.094,3.53 -6.166,5.264 -3.372,2.817 -6.924,5.408 -11,7.11 -3.942,1.646 -7.735,1.648 -11.919,1.959 -1.882,0.139 -5.758,-0.983 -7.288,0.375 -1.534,1.362 3.638,1.492 4.288,1.514 3.772,0.129 7.529,-0.823 11.313,-0.823 2.002,0 4.068,-0.231 6.02,-0.223 1.68,0.008 3.176,0.399 4.859,0.211 1.012,-0.112 1.878,-0.229 2.861,-0.577 2.457,-0.869 4.158,-2.946 6.172,-4.461 2.146,-1.614 4.318,-3.179 6.406,-4.87 3.773,-3.057 7.369,-6.319 10.91,-9.639 6.191,-5.806 12.256,-11.902 19.475,-16.451 9.552,-6.018 20.532,-8.282 31.726,-8.282 25.405,0.001 32.002,-0.458 42.857,-0.456 3.194,0.001 5.728,0.511 8.287,-0.819 z"
   id="path199"
   style="fill:#ff0000;stroke:#000000;stroke-width:0.63919997" /><path
   d="m 562.19084,142.65359 c 1.176,0.439 2.299,0.98 3.354,1.643 1.617,1.019 3.09,2.383 4.434,3.731 4.58,4.591 7.883,10.345 10.203,16.364 6.818,17.686 12.998,26.635 12.998,26.635 0,0 4.049,6.393 8.098,8.097 0,0 6.392,-1.279 10.014,0 0,0 3.246,-2.031 7.363,-9.523 0,0 -3.74,5.901 -7.363,5.901 -3.622,0 -9.482,-6.073 -9.482,-7.99 0,0 -16.299,-33.133 -16.3,-33.134 -1.065,-2.165 -2.995,-3.585 -4.6,-5.38 -1.511,-1.69 -2.996,-3.427 -4.978,-4.587 -2.496,-1.463 -5.02,-2.973 -7.77,-3.915 -2.489,-0.852 -5.227,-0.831 -7.871,-0.898 -4.878,-0.124 -9.757,-0.338 -14.635,-0.135 -0.284,0.012 -0.568,0.008 -0.854,0.01 -12.41,0.082 1.381,-0.162 -11.029,-0.271 -8.316,-0.074 -16.631,-0.149 -24.947,-0.223 -2.504,-0.022 -5.006,0.112 -7.508,0.183 -2.338,0.066 -4.772,0.266 -7.038,-0.389 -0.728,-0.21 -1.478,-0.345 -2.188,-0.638 -1.535,-0.634 -2.916,-1.492 -4.504,-2.01 -0.318,-0.104 -0.951,-0.377 -1.232,-0.297 1.219,1.432 3.016,2.008 4.631,2.829 2.174,1.105 4.557,1.881 6.992,2.091 1.895,0.164 3.805,-0.075 5.692,-0.029 4.398,0.105 8.799,0.175 13.199,0.223 8.802,0.096 -8.606,0.107 0.196,0.147 3.344,0.015 6.688,0.034 10.032,0.064 7.692,0.069 15.39,0.14 23.077,0.428 3.723,0.138 8.452,-0.259 12.016,1.073 z"
   id="path201"
   style="fill:#ff0000;stroke:#000000;stroke-width:0.63919997" /><path
   d="m 582.73584,168.01159 c 0,14.087 -1.453,29.437 -7.547,42.344 -2.436,5.157 -8.078,11.384 -14.207,11.751 -5.451,0.326 -8.219,-5.319 -7.426,-10.095 0.555,-3.347 1.459,-6.426 4.334,-8.534 3.578,-2.622 4.977,-3.481 5.977,-8.17 2.523,-11.841 2.885,-24.911 2.889,-37.109 10e-4,-6.298 1.721,-22.643 -5.967,-25.047 -3.506,-1.096 -7.018,-0.175 -7.691,-5.625 -0.729,-5.897 3.523,-13.211 10.037,-13.21 10.825,10e-4 19.601,24.04 19.601,53.695 z"
   id="path222"
   style="fill:url(#XMLID_10_)" /><polygon
   points="450.045,156.326 493.893,167.707 450.045,181.256 450.045,181.256 "
   transform="translate(-0.1001569,4.70959)"
   id="polygon224"
   style="fill:#003cff;stroke:#2210d2;stroke-width:3.19619989" /><path
   d="m 425.27084,213.41659 0,22.673 0,1.864 c 0,0 -0.799,0.621 1.357,1.32 2.158,0.699 2.797,0.232 2.797,0.232 l 0.04,-27.488 -4.194,1.399 z"
   id="path226"
   style="fill:#7dff00;stroke:#000000;stroke-width:0.61540002" /><path
   d="m 411.29784,225.59859 0,11.673 0,0.96 c 0,0 -0.8,0.319 1.357,0.68 2.158,0.359 2.797,0.119 2.797,0.119 l 0.04,-14.151 -4.194,0.719 z"
   id="path228"
   style="fill:#7dff00;stroke:#000000;stroke-width:0.61540002" /><path
   d="m 398.67284,225.57859 0,12.086 0,0.993 c 0,0 -0.8,0.33 1.357,0.703 2.158,0.372 2.797,0.124 2.797,0.124 l 0.04,-14.651 -4.194,0.745 z"
   id="path230"
   style="fill:#7dff00;stroke:#000000;stroke-width:0.61540002" /><path
   d="m 386.36684,214.38259 0,21.628 0,1.777 c 0,0 -0.799,0.592 1.359,1.259 2.157,0.667 2.797,0.222 2.797,0.222 l 0.039,-26.219 -4.195,1.333 z"
   id="path232"
   style="fill:#7dff00;stroke:#000000;stroke-width:0.61540002" /><path
   d="m 372.72884,226.28259 0,11.413 0,0.938 c 0,0 -0.8,0.313 1.358,0.664 2.157,0.353 2.797,0.117 2.797,0.117 l 0.039,-13.836 -4.194,0.704 z"
   id="path234"
   style="fill:#7dff00;stroke:#000000;stroke-width:0.61540002" /><path
   d="m 348.33784,216.09459 0.304,20.485 0.024,1.684 c 0,0 -0.79,0.573 1.376,1.173 2.168,0.599 2.8,0.168 2.8,0.168 l -0.327,-24.835 -4.177,1.325 z"
   id="path236"
   style="fill:#7dff00;stroke:#000000;stroke-width:0.61540002" /><path
   d="m 360.15584,214.16859 0,21.627 0,1.777 c 0,0 -0.799,0.593 1.357,1.26 2.158,0.666 2.797,0.222 2.797,0.222 l 0.041,-26.219 -4.195,1.333 z"
   id="path238"
   style="fill:#7dff00;stroke:#000000;stroke-width:0.61540002" /><path
   d="m 335.43084,214.59359 0,21.628 0,1.777 c 0,0 -0.799,0.592 1.358,1.259 2.157,0.667 2.796,0.223 2.796,0.223 l 0.041,-26.22 -4.195,1.333 z"
   id="path240"
   style="fill:#7dff00;stroke:#000000;stroke-width:0.61540002" /><path
   d="m 285.90984,215.88059 0.303,20.485 0.024,1.685 c 0,0 -0.791,0.573 1.376,1.172 2.167,0.6 2.799,0.169 2.799,0.169 l -0.327,-24.835 -4.175,1.324 z"
   id="path242"
   style="fill:#7dff00;stroke:#000000;stroke-width:0.61540002" /><path
   d="m 298.36584,213.95459 0,21.627 0,1.778 c 0,0 -0.799,0.592 1.358,1.258 2.157,0.667 2.796,0.223 2.796,0.223 l 0.04,-26.219 -4.194,1.333 z"
   id="path244"
   style="fill:#7dff00;stroke:#000000;stroke-width:0.61540002" /><path
   d="m 323.29584,225.59959 0,11.672 0,0.96 c 0,0 -0.799,0.319 1.358,0.68 2.157,0.36 2.796,0.119 2.796,0.119 l 0.04,-14.15 -4.194,0.719 z"
   id="path246"
   style="fill:#7dff00;stroke:#000000;stroke-width:0.61540002" /><path
   d="m 310.67084,225.57859 0,12.086 0,0.993 c 0,0 -0.799,0.331 1.358,0.703 2.157,0.372 2.796,0.124 2.796,0.124 l 0.04,-14.651 -4.194,0.745 z"
   id="path248"
   style="fill:#7dff00;stroke:#000000;stroke-width:0.61540002" /><path
   d="m 303.44384,100.98359 0,28.782 c 0,0 -0.319,1.431 1.358,1.431 1.678,0 2.837,-1.22 2.837,-1.22 l 0,-30.507997 c 0,0 -2.281,-1.859 -4.195,1.514997 z"
   id="path250"
   style="fill:#ffbf00;stroke:#000000;stroke-width:0.65600002" /><path
   d="m 290.81884,100.88159 0,29.477 c 0,0 -0.319,1.465 1.358,1.465 1.678,0 2.837,-1.25 2.837,-1.25 l 0,-31.242997 c 0,0 -2.281,-1.904 -4.195,1.550997 z"
   id="path252"
   style="fill:#ffbf00;stroke:#000000;stroke-width:0.66390002" /><path
   d="m 278.51384,99.877593 0,17.003997 c 0,0 -0.32,0.845 1.358,0.845 1.678,0 2.836,-0.721 2.836,-0.721 l 0,-18.023997 c 0.001,0 -2.281,-1.098 -4.194,0.896 z"
   id="path254"
   style="fill:#ffbf00;stroke:#000000;stroke-width:0.5043" /><path
   d="m 266.36784,99.693593 0,17.991997 c 0,0 -0.32,0.894 1.358,0.894 1.678,0 2.836,-0.763 2.836,-0.763 l 0,-19.069997 c 10e-4,0 -2.281,-1.162 -4.194,0.947 z"
   id="path256"
   style="fill:#ffbf00;stroke:#000000;stroke-width:0.5187" /><path
   d="m 436.54484,100.22259 -8.965,33.478 c 0,0 -0.755,1.582 0.865,2.016 1.621,0.434 3.121,-0.685 3.121,-0.685 l 9.503,-35.483997 c 0,-0.002 -1.624,-2.755 -4.524,0.674997 z"
   id="path258"
   style="fill:#ffbf00;stroke:#000000;stroke-width:0.71990001" /><path
   d="m 469.92784,126.98459 -29.86,19.19 c 0,0 -1.656,0.685 -0.75,2.096 0.908,1.412 2.801,1.573 2.801,1.573 l 31.649,-20.34 c 0,0 0.696,-3.159 -3.84,-2.519 z"
   id="path260"
   style="fill:#ffbf00;stroke:#000000;stroke-width:0.72850001" /><path
   d="m 476.83384,135.94259 -15.437,20.083 c 0,0 -1.021,0.804 0.31,1.826 1.33,1.023 2.904,0.878 2.904,0.878 l 16.361,-21.288 c 0,0.001 -0.811,-2.687 -4.138,-1.499 z"
   id="path262"
   style="fill:#ffbf00;stroke:#000000;stroke-width:0.61540002" /><path
   d="m 351.12084,100.62459 0,31.213 c 0,0 -0.319,1.551 1.358,1.551 1.679,0 2.837,-1.324 2.837,-1.324 l 0,-33.082997 c 0,0 -2.281,-2.016 -4.195,1.642997 z"
   id="path264"
   style="fill:#ffbf00;stroke:#000000;stroke-width:0.6832" /><path
   d="m 326.46984,100.38259 0,20.436 c 0,0 -0.32,1.016 1.358,1.016 1.678,0 2.836,-0.866 2.836,-0.866 l 0,-21.659997 c 0.001,-0.001 -2.281,-1.322 -4.194,1.073997 z"
   id="path266"
   style="fill:#ffbf00;stroke:#000000;stroke-width:0.5528" /><path
   d="m 314.32384,100.16159 0,21.622 c 0,0 -0.32,1.075 1.358,1.075 1.678,0 2.836,-0.917 2.836,-0.917 l 0,-22.917997 c 0.001,0 -2.281,-1.397 -4.194,1.137997 z"
   id="path268"
   style="fill:#ffbf00;stroke:#000000;stroke-width:0.5686" /><path
   d="m 365.86284,99.664593 0,17.003997 c 0,0 -0.319,0.845 1.358,0.845 1.679,0 2.837,-0.721 2.837,-0.721 l 0,-18.022997 c 0,0 -2.281,-1.099 -4.195,0.895 z"
   id="path270"
   style="fill:#ffbf00;stroke:#000000;stroke-width:0.5043" /><path
   d="m 338.33584,100.16159 0,21.622 c 0,0 -0.319,1.075 1.358,1.075 1.679,0 2.837,-0.917 2.837,-0.917 l 0,-22.917997 c 0,0 -2.281,-1.397 -4.195,1.137997 z"
   id="path272"
   style="fill:#ffbf00;stroke:#000000;stroke-width:0.5686" /><path
   d="m 411.47584,100.55759 0,28.782 c 0,0 -0.32,1.431 1.357,1.431 1.679,0 2.838,-1.22 2.838,-1.22 l 0,-30.507997 c 0,0 -2.282,-1.859 -4.195,1.514997 z"
   id="path274"
   style="fill:#ffbf00;stroke:#000000;stroke-width:0.65600002" /><path
   d="m 398.85084,100.45559 0,29.477 c 0,0 -0.32,1.465 1.357,1.465 1.679,0 2.838,-1.25 2.838,-1.25 l 0,-31.243997 c 0,0 -2.282,-1.903 -4.195,1.551997 z"
   id="path276"
   style="fill:#ffbf00;stroke:#000000;stroke-width:0.66390002" /><path
   d="m 423.20884,99.877593 0,17.003997 c 0,0 -0.32,0.845 1.358,0.845 1.678,0 2.837,-0.721 2.837,-0.721 l 0,-18.023997 c 0,0 -2.282,-1.098 -4.195,0.896 z"
   id="path278"
   style="fill:#ffbf00;stroke:#000000;stroke-width:0.5043" /><path
   d="m 448.92184,101.14559 -5.28,16.164 c 0,0 -0.566,0.705 1.028,1.226 1.594,0.521 2.921,0.196 2.921,0.196 l 5.596,-17.133 c 0,-0.001 -1.827,-1.753997 -4.265,-0.453 z"
   id="path280"
   style="fill:#ffbf00;stroke:#000000;stroke-width:0.5043" /><path
   d="m 462.37184,113.01359 -26.12,22.778 c 0,0 -1.509,0.892 -0.406,2.156 1.104,1.265 2.972,1.172 2.972,1.172 l 27.687,-24.144 c -10e-4,0.001 0.186,-3.19 -4.133,-1.962 z"
   id="path282"
   style="fill:#ffbf00;stroke:#000000;stroke-width:0.71990001" /><g
   transform="translate(-0.1001569,4.70959)"
   id="g284">
	<path
   d="m 485.921,108.614 c -1.743,-5.406 -11.126,-4.298 -12.916,0.468 -0.812,2.161 0.71,9.448 4.226,7.1 -2.379,1.589 -5.32,1.629 -7.846,0.491 -0.96,-0.434 -2.026,-2.017 -3.271,-0.656 -0.947,1.035 0.141,2.174 1.026,2.844 6.094,4.606 21.653,-1.338 18.781,-10.247 z"
   id="path286"
   style="fill:#8210d2;stroke:#000000;stroke-width:0.63919997" />
	<path
   d="m 481.383,109.79 c 0.239,-0.733 0.223,-1.648 -0.143,-2.79 3.256,-0.61 3.863,2.178 3.052,4.724 -0.99,3.106 -5.529,5.351 -8.517,6.046 0.518,-0.459 1.128,-1.168 1.795,-1.571 -3.093,0.542 -5.617,-4.261 -4.112,-6.344 1.509,3.295 6.664,3.788 7.925,-0.065 z"
   id="path288"
   style="fill:#521d7f" />
</g><g
   transform="translate(-0.1001569,4.70959)"
   id="g290">
	<path
   d="m 468.998,210.569 c -0.729,-0.098 -1.307,-0.42 -2.065,-1.199 -0.839,-0.861 -1.721,-4.367 -3.634,-2.872 -1.93,1.507 2.559,4.56 2.852,5.91 0.176,0.816 -0.289,1.159 -0.398,1.976 -0.258,1.927 -0.979,3.142 -0.208,5.132 1.632,4.221 6.771,6.365 10.507,3.994 3.725,-2.362 4.508,-8.296 0.816,-11.431 -1.898,-1.612 -3.813,-1.764 -6.029,-1.554 -0.759,0.072 -1.335,0.112 -1.841,0.044 z"
   id="path292"
   style="fill:#8210d2;stroke:#000000;stroke-width:0.63919997" />
	<path
   d="m 472.84,213.001 c -0.264,-0.085 -0.469,-0.026 -0.613,0.178 0.246,1.074 0.571,2.176 1.052,3.182 -0.724,-0.816 -2.364,-3.503 -3.603,-3.43 -1.895,0.112 -0.811,2.097 0.007,2.846 -1.757,2.52 0.506,5.231 2.881,5.686 -2.944,2.033 -6.4,-0.723 -6.638,-3.837 -0.107,-1.411 0.54,-2.475 0.657,-3.819 0.147,-1.703 -0.542,-2.729 -0.846,-4.263 2.202,1.358 5.276,0.554 7.094,2.09 -0.208,0.31 -0.244,0.589 -0.419,0.894"
   id="path294"
   style="fill:#521d7f" />
</g><g
   transform="translate(-0.1001569,4.70959)"
   id="g296">
	<path
   d="m 480.635,201.197 c -0.734,-0.035 -1.34,-0.307 -2.161,-1.019 -0.909,-0.787 -2.088,-4.204 -3.866,-2.551 -1.794,1.667 2.939,4.325 3.346,5.645 0.246,0.798 -0.188,1.18 -0.227,2.002 -0.093,1.942 -0.707,3.214 0.23,5.131 1.986,4.066 7.289,5.763 10.811,3.082 3.508,-2.673 3.781,-8.651 -0.164,-11.458 -2.029,-1.445 -3.95,-1.431 -6.141,-1.033 -0.749,0.136 -1.32,0.225 -1.828,0.201 z"
   id="path298"
   style="fill:#8210d2;stroke:#000000;stroke-width:0.63919997" />
	<path
   d="m 483.021,204.629 c -1.506,-2.483 -3.109,0.06 -1.094,1.817 -2.501,3.475 0.383,4.998 3.119,5.806 -4.072,5.397 -7.674,-6.229 -6.336,-9.359 -0.688,-0.828 -1.516,-1.558 -1.748,-2.606 1.736,-0.179 3.536,1.335 5.434,1.304 1.417,-0.024 5.228,-1.001 5.41,1.627 0.019,0.267 -4.759,-0.507 -4.785,1.411 z"
   id="path300"
   style="fill:#521d7f" />
</g><g
   transform="translate(-0.1001569,4.70959)"
   id="g302">
	<path
   d="m 453.183,228.375 c -0.733,-0.046 -1.333,-0.327 -2.146,-1.051 -0.896,-0.801 -2.023,-4.235 -3.826,-2.609 -1.818,1.639 2.873,4.367 3.26,5.694 0.233,0.802 -0.205,1.177 -0.257,1.999 -0.122,1.939 -0.755,3.202 0.153,5.134 1.925,4.095 7.201,5.872 10.762,3.244 3.549,-2.619 3.912,-8.593 0.01,-11.46 -2.008,-1.475 -3.928,-1.49 -6.125,-1.125 -0.75,0.125 -1.323,0.205 -1.831,0.174 z"
   id="path304"
   style="fill:#8210d2;stroke:#000000;stroke-width:0.63919997" />
	<path
   d="m 457.186,230.529 c -0.27,-0.066 -0.469,0.007 -0.599,0.221 0.321,1.055 0.724,2.13 1.272,3.1 -0.779,-0.764 -2.604,-3.328 -3.836,-3.167 -1.881,0.244 -0.66,2.148 0.209,2.838 -1.575,2.637 0.873,5.183 3.273,5.468 -2.794,2.236 -6.436,-0.27 -6.891,-3.359 -0.207,-1.4 0.363,-2.507 0.386,-3.856 0.028,-1.709 -0.733,-2.685 -1.144,-4.192 2.293,1.201 5.302,0.181 7.224,1.585 -0.186,0.324 -0.202,0.604 -0.356,0.921"
   id="path306"
   style="fill:#521d7f" />
</g><g
   transform="translate(-0.1001569,4.70959)"
   id="g308">
	<path
   d="m 436.595,237.216 c -1.462,-0.496 -2.103,-2.097 -2.452,-3.478 1.246,-1.106 4.401,0.898 3.932,-1.839 -0.404,-2.352 -5.395,-3.019 -6.661,-1.246 -1.778,2.488 1.987,5.404 2.031,7.814 0.015,0.835 -0.507,1.082 -0.772,1.861 -0.627,1.841 -1.568,2.893 -1.199,4.994 0.785,4.458 5.41,7.556 9.536,5.953 4.11,-1.597 6.028,-7.266 3.014,-11.056 -1.55,-1.95 -3.399,-2.469 -5.615,-2.692 -0.759,-0.075 -1.332,-0.147 -1.814,-0.311 z"
   id="path310"
   style="fill:#8210d2;stroke:#000000;stroke-width:0.63919997" />
	<path
   d="m 437.939,241.174 c -0.76,-2.803 -3.004,-0.803 -1.555,1.444 -3.365,2.646 -1.016,4.908 1.391,6.442 -5.407,4.059 -5.65,-8.109 -3.498,-10.748 -0.434,-0.985 -1.025,-1.916 -0.959,-2.988 1.719,0.31 3.029,2.263 4.86,2.757 1.368,0.37 5.302,0.485 4.749,3.062 -0.056,0.261 -4.433,-1.805 -4.988,0.031 z"
   id="path312"
   style="fill:#521d7f" />
</g><path
   d="m 368.25184,124.40859 0,27.835 0,2.288 c 0,0 -0.799,0.762 1.357,1.621 2.158,0.858 2.797,0.286 2.797,0.286 l 0.041,-33.745 -4.195,1.715 z"
   id="path314"
   style="fill:#7dff00;stroke:#000000;stroke-width:0.69819999" /><path
   d="m 326.50784,124.90259 0.403,24.274 0.033,1.996 c 0,0 -0.788,0.676 1.382,1.396 2.17,0.719 2.8,0.211 2.8,0.211 l -0.449,-29.428 -4.169,1.551 z"
   id="path316"
   style="fill:#7dff00;stroke:#000000;stroke-width:0.6699" /><path
   d="m 338.42484,125.28959 0,24.135 0,1.983 c 0,0 -0.799,0.661 1.357,1.405 2.158,0.744 2.797,0.248 2.797,0.248 l 0.041,-29.258 -4.195,1.487 z"
   id="path318"
   style="fill:#7dff00;stroke:#000000;stroke-width:0.65009999" /><path
   d="m 314.33984,125.19859 0,23.802 0,1.956 c 0,0 -0.799,0.652 1.358,1.386 2.158,0.734 2.797,0.244 2.797,0.244 l 0.04,-28.854 -4.195,1.466 z"
   id="path320"
   style="fill:#7dff00;stroke:#000000;stroke-width:0.64560002" /><polygon
   points="348.24,150.616 345.879,148.797 348.24,147.021 348.24,144.18 357.829,144.18 357.829,146.761 357.829,146.761 355.367,148.688 357.829,150.876 357.829,153.449 348.24,153.449 "
   transform="translate(-0.1001569,4.70959)"
   id="polygon327"
   style="fill:url(#XMLID_11_);stroke:#000000;stroke-width:0.63919997" /><polygon
   points="365.83,155.213 363.469,153.394 365.83,151.617 365.83,148.777 375.418,148.777 375.418,151.357 375.418,151.357 372.956,153.285 375.418,155.473 375.418,158.046 365.83,158.046 "
   transform="translate(-0.1001569,4.70959)"
   id="polygon334"
   style="fill:url(#XMLID_12_);stroke:#000000;stroke-width:0.63919997" /><path
   d="m 278.63284,121.26859 0.4,27.054 0.033,2.225 c 0,0 -0.788,0.753 1.382,1.555 2.17,0.802 2.801,0.236 2.801,0.236 l -0.445,-32.799 -4.171,1.729 z"
   id="path336"
   style="fill:#7dff00;stroke:#000000;stroke-width:0.70730001" /><path
   d="m 290.88184,135.26059 0,13.983 0,1.149 c 0,0 -0.799,0.382 1.358,0.814 2.157,0.431 2.797,0.144 2.797,0.144 l 0.04,-16.952 -4.195,0.862 z"
   id="path338"
   style="fill:#7dff00;stroke:#000000;stroke-width:0.49489999" /><path
   d="m 266.58384,120.92359 0,26.312 0,2.162 c 0,0 -0.799,0.721 1.358,1.532 2.157,0.811 2.797,0.271 2.797,0.271 l 0.04,-31.896 -4.195,1.619 z"
   id="path340"
   style="fill:#7dff00;stroke:#000000;stroke-width:0.67879999" /><polygon
   points="288.056,150.525 285.695,148.706 288.056,146.929 288.056,144.089 297.644,144.089 297.644,146.669 297.644,146.669 295.182,148.597 297.644,150.785 297.644,153.358 288.056,153.358 "
   transform="translate(-0.1001569,4.70959)"
   id="polygon347"
   style="fill:url(#XMLID_13_);stroke:#000000;stroke-width:0.63919997" /><path
   d="m 323.25984,195.59159 0,28.782 c 0,0 -0.319,1.431 1.358,1.431 1.678,0 2.837,-1.221 2.837,-1.221 l 0,-30.507 c 0.001,0 -2.281,-1.859 -4.195,1.515 z"
   id="path349"
   style="fill:#ffbf00;stroke:#000000;stroke-width:0.65600002" /><path
   d="m 310.63484,195.48959 0,29.477 c 0,0 -0.319,1.465 1.358,1.465 1.678,0 2.837,-1.249 2.837,-1.249 l 0,-31.245 c 0.001,0 -2.281,-1.904 -4.195,1.552 z"
   id="path351"
   style="fill:#ffbf00;stroke:#000000;stroke-width:0.66390002" /><path
   d="m 298.32984,194.80659 0,21.569 c 0,0 -0.32,1.072 1.358,1.072 1.678,0 2.836,-0.914 2.836,-0.914 l 0,-22.863 c 10e-4,0 -2.281,-1.393 -4.194,1.136 z"
   id="path353"
   style="fill:#ffbf00;stroke:#000000;stroke-width:0.5679" /><path
   d="m 286.18484,194.62259 0,22.557 c 0,0 -0.32,1.121 1.358,1.121 1.678,0 2.836,-0.956 2.836,-0.956 l 0,-23.909 c 0,0 -2.281,-1.457 -4.194,1.187 z"
   id="path355"
   style="fill:#ffbf00;stroke:#000000;stroke-width:0.5808" /><path
   d="m 348.20484,194.99059 0,20.435 c 0,0 -0.32,1.016 1.357,1.016 1.677,0 2.837,-0.866 2.837,-0.866 l 0,-21.66 c 0,-0.001 -2.282,-1.321 -4.194,1.075 z"
   id="path357"
   style="fill:#ffbf00;stroke:#000000;stroke-width:0.5528" /><path
   d="m 335.41884,194.76959 0,21.622 c 0,0 -0.319,1.074 1.358,1.074 1.678,0 2.837,-0.916 2.837,-0.916 l 0,-22.918 c 0.001,0 -2.281,-1.397 -4.195,1.138 z"
   id="path359"
   style="fill:#ffbf00;stroke:#000000;stroke-width:0.5686" /><path
   d="m 377.53884,186.12559 -5.963,-3.62 c 0,0 -23.848,0 -23.865,0 0,0 0.002,4.345 0,4.58 -0.005,1.135 -0.211,2.139 0.352,3.11 0.527,0.911 1.802,1.132 2.003,2.324 0.254,1.498 -0.651,2.031 -1.458,3.02 -0.846,1.035 -0.896,1.04 -0.896,2.632 0.002,2.326 0,4.651 0,6.977 0,3.332 -0.012,6.665 0,9.997 0.008,2.241 -0.183,5.51 0.432,7.625 0.402,1.384 1.414,2.662 1.912,4.064 0.838,2.363 0.465,5.3 0.426,7.815 -0.019,1.238 -0.486,2.669 -0.213,3.895 0.208,0.927 0.89,1.424 1.07,2.339 0.434,2.19 -1.299,1.437 -2.541,1.985 -0.924,0.408 -2.311,3.224 -1.086,3.987 0.004,0.001 5.964,3.62 5.964,3.62 l 0,-64.35 23.863,0 0,0 z"
   id="path361"
   style="opacity:0.43999999" /><polygon
   points="347.811,177.795 353.774,181.416 377.639,181.416 371.676,177.795 347.811,177.795 "
   transform="translate(-0.1001569,4.70959)"
   id="polygon363" /><path
   d="m 273.23384,225.59959 0,11.672 0,0.96 c 0,0 -0.799,0.319 1.358,0.68 2.157,0.36 2.796,0.119 2.796,0.119 l 0.04,-14.15 -4.194,0.719 z"
   id="path365"
   style="fill:#7dff00;stroke:#000000;stroke-width:0.61540002" /><path
   d="m 260.60884,225.57859 0,12.086 0,0.993 c 0,0 -0.799,0.331 1.358,0.703 2.157,0.372 2.796,0.124 2.796,0.124 l 0.04,-14.651 -4.194,0.745 z"
   id="path367"
   style="fill:#7dff00;stroke:#000000;stroke-width:0.61540002" /><path
   d="m 273.19884,195.59159 0,28.782 c 0,0 -0.319,1.431 1.358,1.431 1.678,0 2.837,-1.221 2.837,-1.221 l 0,-30.507 c 0,0 -2.282,-1.859 -4.195,1.515 z"
   id="path369"
   style="fill:#ffbf00;stroke:#000000;stroke-width:0.65600002" /><path
   d="m 260.57384,195.48959 0,29.477 c 0,0 -0.319,1.465 1.358,1.465 1.678,0 2.837,-1.249 2.837,-1.249 l 0,-31.245 c 0,0 -2.282,-1.904 -4.195,1.552 z"
   id="path371"
   style="fill:#ffbf00;stroke:#000000;stroke-width:0.66390002" /><path
   d="m 308.85084,189.98859 c -10.479,0 -20.957,0 -31.436,0 -12.483,0 -35.385,-3.87 -44.777,6.083 8.153,-3.308 17.667,-0.489 26.179,-0.489 4.872,0 9.745,0 14.617,0 6.149,0 12.298,0 18.448,0 7.039,0 14.078,0 21.117,0 7.542,0 62.388,0 69.931,0 0.73,0 -0.713,3.13 0.73,3.241 0,0 9.23,-4.868 8.904,-5.482 -0.584,-1.1 -8.807,-6.235 -9.528,-6.637 -0.38,-0.212 0.632,3.521 0.201,3.388 0,0 -3.489,-0.103 -6.089,-0.103 -7.21,-0.002 -61.085,-0.001 -68.297,-0.001 z"
   id="path373"
   style="fill:#ff0000;stroke:#000000;stroke-width:0.63919997" /><polygon
   points="377.639,181.416 377.639,245.766 377.639,245.766 353.774,245.766 353.774,181.416 361.02,181.416 369.969,181.416 "
   transform="translate(-0.1001569,4.70959)"
   id="polygon375"
   style="fill:#ffbf00;stroke:#000000;stroke-width:0.5686" /><path
   d="m 215.03384,149.80159 -1.037,8.086 45.327,-0.163 c -1.823,-1.638 -2.221,-6.414 -0.18,-7.924 l -44.11,0 0,0.001 z"
   id="path377"
   style="fill:#bf0000;stroke:#000000;stroke-width:0.50840002" /><path
   d="m 229.61384,132.96259 0.355,17.471 0.029,1.436 c 0,0 -0.865,0.483 1.507,1.011 2.372,0.527 3.063,0.165 3.063,0.165 l -0.387,-21.181 -4.567,1.098 z"
   id="path379"
   style="fill:#7dff00;stroke:#000000;stroke-width:0.59450001" /><path
   d="m 241.27284,124.51159 0,24.932 0,2.049 c 0,0 -0.874,0.683 1.486,1.451 2.36,0.769 3.06,0.256 3.06,0.256 l 0.043,-30.224 -4.589,1.536 z"
   id="path381"
   style="fill:#7dff00;stroke:#000000;stroke-width:0.6911" /><path
   d="m 217.48084,134.93059 0,15.623 0,1.284 c 0,0 -0.874,0.428 1.486,0.909 2.36,0.482 3.059,0.161 3.059,0.161 l 0.044,-18.94 -4.589,0.963 z"
   id="path383"
   style="fill:#7dff00;stroke:#000000;stroke-width:0.54710001" /><path
   d="m 252.13984,124.77859 0,24.977 0,2.052 c 0,0 -0.874,0.684 1.486,1.454 2.36,0.77 3.059,0.256 3.059,0.256 l 0.044,-30.279 -4.589,1.54 z"
   id="path385"
   style="fill:#7dff00;stroke:#000000;stroke-width:0.6918" /><path
   d="m 141.73284,149.72859 c -4.143,-0.037 -8.288,-0.063 -12.44,-0.063 -2.189,0 -3.59,-0.546 -4,1.5 -0.32,1.599 0.249,3.437 1.744,4.006 1.604,0.61 4.793,0.322 6.552,0.501 5.593,0.568 11.311,1.037 16.936,1.256 6.355,0.249 12.753,0.376 19.075,0.736 3.611,0.206 7.188,-0.598 10.778,-0.468 2.637,0.096 5.062,0.766 7.777,0.759 3.604,-0.009 7.209,-0.017 10.814,-0.025 3.029,-0.007 7.431,0.815 10.322,-0.024 4.088,-1.187 3.793,-6.414 -0.19,-7.923 -2.962,-1.123 -8.533,0 -11.644,0 -8.34,0 -16.681,0 -25.021,0 -10.265,0 -20.476,-0.162 -30.703,-0.255 z"
   id="path387"
   style="fill:#bf0000;stroke:#000000;stroke-width:0.52399999" /><path
   d="m 178.81684,124.83559 0.461,24.637 0.038,2.025 c 0,0 -0.862,0.676 1.513,1.434 2.375,0.758 3.064,0.251 3.064,0.251 l -0.516,-29.867 -4.56,1.52 z"
   id="path389"
   style="fill:#7dff00;stroke:#000000;stroke-width:0.70590001" /><path
   d="m 191.23884,124.69259 0,24.932 0,2.049 c 0,0 -0.874,0.683 1.486,1.452 2.36,0.769 3.06,0.255 3.06,0.255 l 0.043,-30.224 -4.589,1.536 z"
   id="path391"
   style="fill:#7dff00;stroke:#000000;stroke-width:0.6911" /><path
   d="m 166.80784,125.50059 0,23.929 0,1.967 c 0,0 -0.874,0.655 1.486,1.393 2.36,0.738 3.06,0.246 3.06,0.246 l 0.043,-29.008 -4.589,1.473 z"
   id="path393"
   style="fill:#7dff00;stroke:#000000;stroke-width:0.6771" /><path
   d="m 202.10584,124.96059 0,24.977 0,2.052 c 0,0 -0.874,0.684 1.486,1.454 2.36,0.771 3.06,0.256 3.06,0.256 l 0.043,-30.279 -4.589,1.54 z"
   id="path395"
   style="fill:#7dff00;stroke:#000000;stroke-width:0.6918" /><path
   d="m 167.19184,100.01559 0,25.398 c 0,0 -0.32,1.262 1.358,1.262 1.678,0 2.836,-1.076 2.836,-1.076 l 0,-26.920997 c 0,0 -2.281,-1.641 -4.194,1.336997 z"
   id="path397"
   style="fill:#ffbf00;stroke:#000000;stroke-width:0.61629999" /><path
   d="m 156.04484,100.68259 0,35.724 c 0,0 -0.319,1.776 1.358,1.776 1.678,0 2.837,-1.515 2.837,-1.515 l 0,-37.865997 c 0,0 -2.282,-2.307 -4.195,1.880997 z"
   id="path399"
   style="fill:#ffbf00;stroke:#000000;stroke-width:0.73089999" /><path
   d="m 143.73884,99.740593 0,24.137997 c 0,0 -0.32,1.2 1.358,1.2 1.678,0 2.836,-1.023 2.836,-1.023 l 0,-25.585997 c 0.001,0 -2.28,-1.559 -4.194,1.271 z"
   id="path401"
   style="fill:#ffbf00;stroke:#000000;stroke-width:0.60079998" /><path
   d="m 468.99584,111.47459 c -0.773,-1.623 -1.53,-3.345 -2.369,-4.879 -0.107,-0.195 -0.219,-0.385 -0.334,-0.573 -6.967,-11.335997 -20.836,-10.640997 -32.475,-10.640997 -5.326,0 -10.65,0 -15.977,0 0,0 -115.624,0 -115.702,0 -0.104,0 -0.208,0 -0.312,0 -25.97,0 -51.94,0 -77.911,0 -17.364,0 -34.728,0 -52.091,0 -6.192,0 -12.384,0 -18.577,0 -6.003,0 -11.854,-0.355 -17.829,0.41 -2.691,0.345 -5.359,0.991 -7.975,1.723 -2.446,0.684 -4.977,1.565 -7.122,2.937997 -1.967,1.258 -5.259,3.189 -6.146,5.455 2.412,-1.32 4.696,-3.115 7.235,-4.365 2.815,-1.386 5.767,-2.124997 8.883,-2.124997 2.895,0 5.775,0.252 8.613,0.718997 2.197,0.362 4.439,0.75 6.665,0.78 5.002,0.067 10.024,0.059 15.043,0.059 8.761,0 17.522,0 26.285,0 4.872,0 74.947,0 79.819,0 6.149,0 12.299,0 18.448,0 7.04,0 14.079,0 21.118,0 7.542,0 15.084,0 22.626,0 7.657,0 15.314,0 22.972,0 7.386,0 14.771,0 22.157,0 6.728,0 33.27,0 39.997,0 5.68,0 11.359,0 17.04,0 14.538,0 29.251,-0.108 38.405,12.942 0.21,0.299 1.33,1.265 1.378,1.465 -0.327,-1.394 -1.253,-2.627 -1.864,-3.908 z"
   id="path403"
   style="fill:#ff0000;stroke:#000000;stroke-width:0.63919997" /><path
   d="m 155.74284,136.55459 0.308,14.255 0.025,1.172 c 0,0 -0.866,0.396 1.504,0.82 2.37,0.423 3.063,0.126 3.063,0.126 l -0.33,-17.282 -4.57,0.909 z"
   id="path405"
   style="fill:#7dff00;stroke:#000000;stroke-width:0.537" /><path
   d="m 143.55484,117.33459 0,30.708 0,2.524 c 0,0 -0.874,0.841 1.486,1.788 2.36,0.947 3.06,0.316 3.06,0.316 l 0.043,-37.228 -4.589,1.892 z"
   id="path407"
   style="fill:#7dff00;stroke:#000000;stroke-width:0.76700002" /><path
   d="m 397.99584,100.58359 c 0,6.3 -0.891,13.166 -4.623,18.94 -1.491,2.307 -4.947,5.092 -8.701,5.256 -3.339,0.146 -5.034,-2.379 -4.549,-4.515 0.347,-1.522 0.629,-2.686 1.396,-4.08 2.161,-3.928 2.247,-8.15 2.682,-12.455 0.526,-5.203997 0.205,-10.594997 -1.828,-15.467997 -1.835,-4.398 -3.556,-11.698 3.618,-11.697 6.629,0.001 12.005,10.754 12.005,24.018997 z"
   id="path428"
   style="fill:url(#XMLID_14_)" /><g
   transform="translate(-0.1001569,4.70959)"
   id="g430">
	<path
   d="m 462.371,98.556 c -0.103,0.728 -0.43,1.304 -1.215,2.057 -0.867,0.832 -4.381,1.687 -2.9,3.611 1.492,1.941 4.579,-2.523 5.932,-2.806 0.818,-0.17 1.157,0.297 1.973,0.413 1.926,0.273 3.134,1.003 5.131,0.249 4.232,-1.6 6.416,-6.722 4.074,-10.477 -2.334,-3.742 -8.261,-4.571 -11.424,-0.904 -1.627,1.887 -1.793,3.8 -1.6,6.018 0.064,0.758 0.101,1.334 0.029,1.839 z"
   id="path432"
   style="fill:#8210d2;stroke:#000000;stroke-width:0.63919997" />
	<path
   d="m 464.259,100.232 c 1.084,-0.821 2.087,-1.715 3.194,-2.438 1.691,2.663 6.525,0.074 7.369,-2.26 -0.095,4.877 -6.865,8.1 -10.244,4.698"
   id="path434"
   style="fill:#521d7f" />
	<path
   d="m 463.619,92.562 c -0.658,1.269 -1.118,2.709 -0.894,4.129 1.836,-0.91 1.351,-2.207 0.574,-3.81"
   id="path436"
   style="fill:#521d7f" />
</g><g
   transform="translate(-0.1001569,4.70959)"
   id="g438">
	<path
   d="m 443.428,91.826 c 0.476,0.561 0.689,1.188 0.73,2.274 0.046,1.201 -1.648,4.395 0.773,4.567 2.442,0.174 1.155,-5.099 1.843,-6.298 0.416,-0.724 0.99,-0.667 1.618,-1.2 1.482,-1.258 2.832,-1.676 3.594,-3.67 1.615,-4.228 -0.762,-9.261 -5.125,-10.005 -4.348,-0.741 -8.904,3.139 -8.264,7.939 0.329,2.469 1.648,3.864 3.436,5.193 0.611,0.456 1.065,0.812 1.395,1.2 z"
   id="path440"
   style="fill:#8210d2;stroke:#000000;stroke-width:0.63919997" />
	<path
   d="m 442.205,87.447 c 0.139,0.241 0.33,0.333 0.574,0.279 0.537,-0.962 1.033,-1.998 1.352,-3.066 -0.01,1.091 -0.592,4.185 0.377,4.96 1.48,1.186 2.006,-1.014 1.9,-2.118 2.992,-0.693 3.13,-4.223 1.67,-6.15 3.549,0.463 4.268,4.824 2.357,7.294 -0.865,1.12 -2.059,1.477 -3.047,2.396 -1.25,1.165 -1.426,2.39 -2.228,3.731 -0.725,-2.484 -3.546,-3.945 -3.866,-6.304 0.361,-0.091 0.576,-0.274 0.91,-0.382"
   id="path442"
   style="fill:#521d7f" />
</g><g
   transform="translate(-0.1001569,4.70959)"
   id="g444">
	<path
   d="m 428.51,90.989 c 0.521,0.517 0.789,1.125 0.922,2.204 0.148,1.193 -1.266,4.52 1.161,4.484 2.448,-0.036 0.716,-5.18 1.298,-6.433 0.353,-0.757 0.93,-0.75 1.51,-1.334 1.37,-1.38 2.678,-1.913 3.267,-3.964 1.249,-4.35 -1.55,-9.162 -5.96,-9.53 -4.396,-0.367 -8.604,3.888 -7.557,8.616 0.539,2.432 1.975,3.709 3.867,4.881 0.647,0.401 1.13,0.717 1.492,1.076 z"
   id="path446"
   style="fill:#8210d2;stroke:#000000;stroke-width:0.63919997" />
	<path
   d="m 429.037,86.841 c -0.546,2.852 2.348,2.038 2.029,-0.617 4.186,-0.904 3.064,-3.966 1.574,-6.399 6.64,-1.278 1.523,9.766 -1.566,11.193 -0.044,1.076 0.082,2.172 -0.447,3.106 -1.41,-1.031 -1.731,-3.361 -3.161,-4.608 -1.068,-0.932 -4.552,-2.76 -2.927,-4.833 0.165,-0.21 3.195,3.566 4.498,2.158 z"
   id="path448"
   style="fill:#521d7f" />
</g><path
   d="m 224.36084,89.450593 -7.003,-1.531 c 0,0 -17.998,0 -18.01,0 -0.058,0.847 0.074,1.709 0,2.557 -0.111,1.27 -0.102,2.662 0.005,3.938 0.086,1.033 0.414,1.427 0.877,2.327 0.669,1.298 1.445,4.360997 -0.855,4.561997 -0.142,2.457 0.168,12.543 0.13,15.083 -0.077,5.104 -0.172,10.085 -0.465,15.104 -0.18,3.073 0.291,18.405 0.291,18.405 1.247,2.013 2.735,7.16 0.457,7.596 -2.427,0.464 -0.753,2.061 0.947,2.41 1.751,0.36 3.503,0.72 5.255,1.08 l -0.06,-71.766997 18.431,0.236 z"
   id="path450"
   style="opacity:0.43999999" /><path
   d="m 149.23984,157.24959 c 0.963,0.056 1.92,0.111 2.865,0.161 4.036,0.213 8.072,0.022 12.106,-0.117 3.328,-0.114 6.638,0.635 9.811,-0.44 -1.978,-1.495 -6.544,-0.522 -8.98,-0.682 -2.596,-0.17 -5.183,-0.177 -7.807,-0.257 -4.87,-0.148 -9.586,-0.679 -14.381,-1.263 -5.967,-0.727 -9.189,-3.749 -12.216,-8.891 -2.935,-4.985 -4.689,-10.533 -7.248,-15.701 -4.021,-8.125 -7.934,-18.56 -14.447,-25.075 -5.114,-5.113997 -7.459,-7.243997 -14.702997,-9.161997 0,0 -4.336,0.287 -8.311,0 0,0 -10.279,1.474 -14.967,10.210997 0,0 7.723,-8.719997 14.754,-7.440997 0,0 3.941,-0.533 12.04,7.563997 6.773997,6.774 11.307997,16.194 15.516997,24.676 3.247,6.542 4.633,13.958 8.687,20.11 3.989,6.053 10.295,6.157 17.078,5.996 3.305,-0.077 6.793,0.115 10.202,0.311 z"
   id="path452"
   style="fill:#ff0000;stroke:#000000;stroke-width:0.63919997" /><path
   d="m 202.00684,192.02559 c 0,0 3.941,-0.511 12.039,7.254 6.465,6.2 10.218,14.427 14.733,22.014 4.111,6.907 6.195,13.155 13.052,18.224 3.29,2.433 7.204,2.555 11.052,3.271 2.875,0.535 6.922,2.515 9.578,0.312 -7.314,-4.696 -16.476,-6.116 -20.709,-14.738 -2.364,-4.816 -4.062,-10.009 -6.604,-14.721 -2.775,-5.144 -5.634,-11.381 -9.914,-15.486 -5.114,-4.905 -7.459,-6.947 -14.703,-8.787 0,0 -4.336,0.275 -8.311,0 0,0 -10.279,1.414 -14.967,9.792 0,0.002 7.723,-8.361 14.754,-7.135 z"
   id="path454"
   style="fill:#ff0000;stroke:#000000;stroke-width:0.62599999" /><polygon
   points="347.316,266.865 365.893,237.865 347.316,257.441 347.316,257.441 "
   transform="translate(-0.1001569,4.70959)"
   id="polygon752" /><polygon
   points="369.443,153.411 335.393,37.365 331.893,40.865 331.893,40.865 "
   transform="translate(-0.1001569,4.70959)"
   id="polygon774" /><polygon
   points="358.393,19.365 387.509,81.383 353.893,23.865 353.893,23.865 "
   transform="translate(-0.1001569,4.70959)"
   id="polygon798" /><polygon
   points="473.278,216.36 436.393,303.365 431.893,295.865 431.893,295.865 "
   transform="translate(-0.1001569,4.70959)"
   id="polygon800" /><polygon
   points="466.947,168.865 379.893,275.135 383.893,280.865 383.893,280.865 "
   transform="translate(-0.1001569,4.70959)"
   id="polygon802" /><polygon
   points="583.893,234.865 584.893,222.865 569.2,199.558 569.2,199.558 "
   transform="translate(-0.1001569,4.70959)"
   id="polygon804" /><path
   d="m 260.78384,166.27159 c -3.442,0 -6.232,-5.366 -6.232,-11.986 0,-2.351 0.968,-4.588 1.016,-6.854 0.009,-0.43 -1.385,-4.535 -1.854,-3.509 1.357,-2.965 4.031,-5.407 7.55,-5.139 2.354,0.179 6.401,2.553 6.663,5.058 -3.726,1.126 -0.91,7.857 -0.91,10.443 -10e-4,6.62 -2.791,11.987 -6.233,11.987 z"
   id="path806"
   style="fill:#00a0c6;stroke:#000000;stroke-width:0.70590001" /><polygon
   points="224.446,84.579 224.446,156.275 224.446,156.275 206.436,156.275 206.436,84.579 211.902,84.579 218.657,84.579 "
   transform="translate(-0.1001569,4.70959)"
   id="polygon808"
   style="fill:#ff900b;stroke:#000000;stroke-width:0.52139997" /><polygon
   points="213.059,107.554 189.893,62.865 191.358,57.365 191.358,57.365 "
   transform="translate(-0.1001569,4.70959)"
   id="polygon810" /><polygon
   points="279.226,176.532 330.233,149.943 274.226,171.532 274.226,171.532 "
   transform="translate(-0.1001569,4.70959)"
   id="polygon812" /><polygon
   points="264.063,152.821 244.893,48.865 240.893,51.532 240.893,51.532 "
   transform="translate(-0.1001569,4.70959)"
   id="polygon814" /><text
   x="49.923515"
   y="65.090462"
   id="text3013"
   xml:space="preserve"
   style="font-size:12px;font-style:normal;font-variant:normal;font-weight:normal;font-stretch:normal;text-align:start;line-height:100%;writing-mode:lr-tb;text-anchor:start;fill:#000000;fill-opacity:1;stroke:none;font-family:Sans"><tspan
     x="49.923515"
     y="65.090462"
     id="tspan3015">DNA-Polymerase (Pol)</tspan></text>


<text
   x="211.32065"
   y="176.46393"
   id="text3017"
   xml:space="preserve"
   style="font-size:22px;font-style:normal;font-variant:normal;font-weight:normal;font-stretch:normal;text-align:start;line-height:100%;writing-mode:lr-tb;text-anchor:start;fill:#000000;fill-opacity:1;stroke:none;font-family:SF Cartoonist Hand"><tspan
     x="211.32065"
     y="176.46393"
     id="tspan3019" /></text>


<text
   x="77.977348"
   y="126.44025"
   id="text3021"
   xml:space="preserve"
   style="font-size:12px;font-style:normal;font-variant:normal;font-weight:bold;font-stretch:normal;text-align:end;line-height:100%;writing-mode:lr-tb;text-anchor:end;fill:#aa0000;fill-opacity:1;stroke:none;font-family:Sans"><tspan
     x="77.977348"
     y="126.44025"
     id="tspan3029">Lagging</tspan><tspan
     x="77.977348"
     y="138.44025"
     id="tspan3278">strand</tspan></text>


<text
   x="163.18469"
   y="182.12698"
   id="text3025"
   xml:space="preserve"
   style="font-size:12px;font-style:normal;font-variant:normal;font-weight:normal;font-stretch:normal;text-align:start;line-height:100%;writing-mode:lr-tb;text-anchor:start;fill:#000000;fill-opacity:1;stroke:none;font-family:Sans"><tspan
     x="163.18469"
     y="182.12698"
     id="tspan3027">Okazaki fragment</tspan></text>


<text
   x="173.30865"
   y="216.10533"
   id="text3031"
   xml:space="preserve"
   style="font-size:12px;font-style:normal;font-variant:normal;font-weight:bold;font-stretch:normal;text-align:end;line-height:100%;writing-mode:lr-tb;text-anchor:end;fill:#aa0000;fill-opacity:1;stroke:none;font-family:Sans"><tspan
     x="173.30865"
     y="216.10533"
     id="tspan3039">Leading</tspan><tspan
     x="173.30865"
     y="228.10533"
     id="tspan3282">strand</tspan></text>


<text
   x="587.91394"
   y="238.28563"
   id="text3041"
   xml:space="preserve"
   style="font-size:12px;font-style:normal;font-variant:normal;font-weight:normal;font-stretch:normal;text-align:start;line-height:100%;writing-mode:lr-tb;text-anchor:start;fill:#000000;fill-opacity:1;stroke:none;font-family:Sans"><tspan
     x="587.91394"
     y="238.28563"
     id="tspan3043">Topoisomerase</tspan></text>


<text
   x="206.60144"
   y="269.90439"
   id="text3045"
   xml:space="preserve"
   style="font-size:12px;font-style:normal;font-variant:normal;font-weight:normal;font-stretch:normal;text-align:start;line-height:100%;writing-mode:lr-tb;text-anchor:start;fill:#000000;fill-opacity:1;stroke:none;font-family:Sans"><tspan
     x="206.60144"
     y="269.90439"
     id="tspan3047">DNA Polymerase (Pol)</tspan></text>


<text
   x="175.45462"
   y="49.517059"
   id="text3049"
   xml:space="preserve"
   style="font-size:12px;font-style:normal;font-variant:normal;font-weight:normal;font-stretch:normal;text-align:start;line-height:100%;writing-mode:lr-tb;text-anchor:start;fill:#000000;fill-opacity:1;stroke:none;font-family:Sans"><tspan
     x="175.45462"
     y="49.517059"
     id="tspan3051">DNA-ligase</tspan></text>


<text
   x="263.70392"
   y="43.854004"
   id="text3053"
   xml:space="preserve"
   style="font-size:12px;font-style:normal;font-variant:normal;font-weight:normal;font-stretch:normal;text-align:start;line-height:100%;writing-mode:lr-tb;text-anchor:start;fill:#000000;fill-opacity:1;stroke:none;font-family:Sans"><tspan
     x="263.70392"
     y="43.854004"
     id="tspan3055">RNA primer</tspan></text>


<text
   x="306.6488"
   y="24.505234"
   id="text3057"
   xml:space="preserve"
   style="font-size:12px;font-style:normal;font-variant:normal;font-weight:normal;font-stretch:normal;text-align:start;line-height:100%;writing-mode:lr-tb;text-anchor:start;fill:#000000;fill-opacity:1;stroke:none;font-family:Sans"><tspan
     x="306.6488"
     y="24.505234"
     id="tspan3059">DNA primase</tspan></text>


<text
   x="329.30103"
   y="288.78122"
   id="text3061"
   xml:space="preserve"
   style="font-size:12px;font-style:normal;font-variant:normal;font-weight:normal;font-stretch:normal;text-align:start;line-height:100%;writing-mode:lr-tb;text-anchor:start;fill:#000000;fill-opacity:1;stroke:none;font-family:Sans"><tspan
     x="329.30103"
     y="288.78122"
     id="tspan3063">Helicase</tspan></text>


<text
   x="348.64978"
   y="308.13"
   id="text3065"
   xml:space="preserve"
   style="font-size:12px;font-style:normal;font-variant:normal;font-weight:normal;font-stretch:normal;text-align:start;line-height:100%;writing-mode:lr-tb;text-anchor:start;fill:#000000;fill-opacity:1;stroke:none;font-family:Sans"><tspan
     x="348.64978"
     y="308.13"
     id="tspan3067">Single strand,</tspan><tspan
     x="348.64978"
     y="320.13"
     id="tspan3284">Binding proteins</tspan><tspan
     x="348.64978"
     y="332.13"
     id="tspan3069" /></text>


<text
   x="466.63019"
   y="327.95071"
   id="text3071"
   xml:space="preserve"
   style="font-size:22px;font-style:normal;font-variant:normal;font-weight:normal;font-stretch:normal;text-align:start;line-height:100%;writing-mode:lr-tb;text-anchor:start;fill:#000000;fill-opacity:1;stroke:none;font-family:SF Cartoonist Hand"><tspan
     x="466.63019"
     y="327.95071"
     id="tspan3073" /></text>



<text
   x="53.88422"
   y="104.04656"
   id="text3286"
   xml:space="preserve"
   style="font-size:13px;font-style:normal;font-weight:normal;line-height:125%;letter-spacing:0px;word-spacing:0px;fill:#000000;fill-opacity:1;stroke:none;font-family:Sans"><tspan
     x="53.88422"
     y="104.04656"
     id="tspan3288"
     style="font-style:normal;font-variant:normal;font-weight:normal;font-stretch:normal;font-family:Liberation Sans;-inkscape-font-specification:Liberation Sans">3</tspan></text>

<text
   x="62.44854"
   y="171.38658"
   id="text3286-3"
   xml:space="preserve"
   style="font-size:13px;font-style:normal;font-weight:normal;line-height:125%;letter-spacing:0px;word-spacing:0px;fill:#000000;fill-opacity:1;stroke:none;overflow:visible;font-family:Sans"><tspan
     x="62.44854"
     y="171.38658"
     id="tspan3288-5"
     style="font-style:normal;font-variant:normal;font-weight:normal;font-stretch:normal;font-family:Liberation Sans;-inkscape-font-specification:Liberation Sans">5</tspan></text>

<text
   x="162.86816"
   y="255.84596"
   id="text3286-9"
   xml:space="preserve"
   style="font-size:13px;font-style:normal;font-weight:normal;line-height:125%;letter-spacing:0px;word-spacing:0px;fill:#000000;fill-opacity:1;stroke:none;overflow:visible;font-family:Sans"><tspan
     x="162.86816"
     y="255.84596"
     id="tspan3288-1"
     style="font-style:normal;font-variant:normal;font-weight:normal;font-stretch:normal;font-family:Liberation Sans;-inkscape-font-specification:Liberation Sans">3</tspan></text>

<text
   x="154.05679"
   y="198.82278"
   id="text3286-3-1"
   xml:space="preserve"
   style="font-size:13px;font-style:normal;font-weight:normal;line-height:125%;letter-spacing:0px;word-spacing:0px;fill:#000000;fill-opacity:1;stroke:none;overflow:visible;font-family:Sans"><tspan
     x="154.05679"
     y="198.82278"
     id="tspan3288-5-6"
     style="font-style:normal;font-variant:normal;font-weight:normal;font-stretch:normal;font-family:Liberation Sans;-inkscape-font-specification:Liberation Sans">5</tspan></text>

<text
   x="674.71118"
   y="138.10704"
   id="text3286-0"
   xml:space="preserve"
   style="font-size:13px;font-style:normal;font-weight:normal;line-height:125%;letter-spacing:0px;word-spacing:0px;fill:#000000;fill-opacity:1;stroke:none;overflow:visible;font-family:Sans"><tspan
     x="674.71118"
     y="138.10704"
     id="tspan3288-8"
     style="font-style:normal;font-variant:normal;font-weight:normal;font-stretch:normal;font-family:Liberation Sans;-inkscape-font-specification:Liberation Sans">3</tspan></text>

<text
   x="671.95203"
   y="201.93286"
   id="text3286-3-7"
   xml:space="preserve"
   style="font-size:13px;font-style:normal;font-weight:normal;line-height:125%;letter-spacing:0px;word-spacing:0px;fill:#000000;fill-opacity:1;stroke:none;overflow:visible;font-family:Sans"><tspan
     x="671.95203"
     y="201.93286"
     id="tspan3288-5-8"
     style="font-style:normal;font-variant:normal;font-weight:normal;font-stretch:normal;font-family:Liberation Sans;-inkscape-font-specification:Liberation Sans">5</tspan></text>

</svg>