<?xml version="1.0" ?><svg id="Layer_1" style="enable-background:new 0 0 30 30;" version="1.1" viewBox="0 0 30 30" xml:space="preserve" xmlns="http://www.w3.org/2000/svg" xmlns:xlink="http://www.w3.org/1999/xlink"><polygon points="18,17 12.5,12.5 3,22 3,27 8,27 8,24 11,24 11,21 14,21 "/><path d="M18.5,3C13.806,3,10,6.806,10,11.5c0,4.694,3.806,8.5,8.5,8.5s8.5-3.806,8.5-8.5C27,6.806,23.194,3,18.5,3z M20.5,12  c-1.381,0-2.5-1.119-2.5-2.5C18,8.119,19.119,7,20.5,7S23,8.119,23,9.5C23,10.881,21.881,12,20.5,12z"/></svg>